<?xml version="1.0" standalone="no"?>
<!DOCTYPE svg PUBLIC "-//W3C//DTD SVG 1.1//EN" "http://www.w3.org/Graphics/SVG/1.1/DTD/svg11.dtd" >
<svg xmlns="http://www.w3.org/2000/svg">
<metadata>Generated by IcoMoon</metadata>
<defs>
<font id="UI-Academy" horiz-adv-x="1024">
<font-face units-per-em="1024" ascent="960" descent="-64" />
<missing-glyph horiz-adv-x="1024" />
<glyph unicode="&#x20;" d="" horiz-adv-x="512" />
<glyph unicode="&#x21;" d="M16.5 215q5 21 15 30.5 14.5 12.5 39 15.5t48.75-0.75 42.5-12.25 20.75-21q4-21.5-1.75-42.5t-17.75-32q-11.5-10-33.5-12.25t-45 1.25-42 12.75-24 21.75q-7 18-2 39zM95 410.5l35 526 17.5 7.5 24.5-89.5 77 106.5 26.5-68.5 61.5 33-162-528.5-19.5-10-15 49z" horiz-adv-x="344" />
<glyph unicode="&#x22;" d="M43 923.5l17.5-1 15.5 21.5 36.5-20.5 32 30.5 22.5-2-24.5-250-23.5-4-9.5 25.5-36-15zM218 662l33 270.5 42 14.5 39-47 39.5 29.5-92-258-22.5 13z" horiz-adv-x="407" />
<glyph unicode="&#x23;" d="M22.5 291.5v1l48 41-33.5 38 18.5 42-12.5 10 76 5 11 163-79-5 10.5 22.5-20.5 30.5 41 46.5-10.5 33.5 72 4 13 142.5 12.5 7 26.5-26.5 36 17.5-10.5-136 105.5 3 12.5 128 15.5-5.5 33.5 39 31-13-8.5-144.5 67.5 3-6-23.5 20.5-17.5-24.5-34 7-29.5-74.5-14.5-12.5-180 82 6 5-14-47-37 27.5-43-6-14.5-7-1-65.5-10-15.5-142.5-6-4-33 12-31.5-32.5-4.5 3 10.5 153.5-104.5-10-18.5-132.5-6 13.5-34-27.5-31.5 27.5-2-4 7 114.5zM205 432l102 5 7.5 172-102.5-10.5z" horiz-adv-x="493" />
<glyph unicode="&#x24;" d="M30 632q-1.5 19 1.25 38t9.75 35q20.5 47 62.5 70.25t96 31.25q5 33 6.25 63.75t1.25 44.75l46-26.5 38 40q-2-18.5-7.25-51.25t-12.25-69.75q42-2 66.5-4.5t42-5.5q1-7 1.5-13.25t1.5-13.25l-24.5-13.5 2-8 2-8.5q1-4 3-9-19.5 1-37.25 2.5t-35.75 1.5-35.5-3-36-10.5q-13.5-5-24-22.5t-15.25-38-1-40.25 18.75-31.25q23.5-17.5 51.75-26.25t55.75-15.75q14.5-4 27.25-7t25.25-8.5q12.5-5 23-9.5t20-12q10-8 19.75-25t13-38.5-2-46-22.75-49q-16.5-22.5-50.75-40t-87.25-25.5q0-15.5-1.5-34t-3.75-36.25-4.25-32.75-3-23l-24.5 19.5-49-19.5q-1 13.5-3.25 46.75t-5.25 75.25q-41 1-71 6t-65 16.5l31.5 40-17 23.5q20.5-4 48-8.25t55.25-4.25 53.25 6.25 42 22.25q9 9 12.25 22.5t-1 27.75-15.5 27.25-31.75 20q-21.5 7-45 14.25t-46 16.5-42.5 22-34.5 31.25q-9 12.5-14.25 29.25t-6.75 35.75z" horiz-adv-x="445" />
<glyph unicode="&#x25;" d="M34.5 711.75q0.5 35.25 7 69.75t20.5 65.75 38.5 56.75q17.5 18.5 47.5 26t61.75 4.5 58.5-16.25 37.75-35.75q6-12.5 16-41.75t13-69.5-6.25-89.5-41.25-101.25q-24.5-41-65.5-56.5t-80.75-6.75-70 40.5-34.25 85.25q-3 33.5-2.5 68.75zM126 711.5q-1-21.5 1-43t7-37q9-31.5 27.5-38.25t40 17.75q13.5 15.5 20.75 42t9.25 56.75 0 58-7 43.75q-5 18.5-20.5 27.75t-36 0.25q-11.5-5-19-18.5t-12.75-31.25-7.75-38.25-2.5-40zM230.5 112.5l197.5 830.5 32 8 15-69.5 58.5 105.5 37-16.5-222.5-851-39 28.5-50-44zM461.5 323.75q0.5 37.25 7.5 73.25t22.5 69.25 42 59.75q19.5 19.5 52.25 27.75t67.5 5 64.5-17.5 42.25-37.75q6-13.5 16.75-43.5t14.25-72.5-6.75-94.75-44.75-107.75q-18.5-28.5-45.25-45.5t-56.25-22-59.25 1-54.5 23-41 44.5-19.25 65.5q-3 35-2.5 72.25zM561 323.5q0-22.5 2-45.25t7.5-38.75q10-33 30.5-40.25t44 18.75q14.5 15.5 22.25 44t10.25 59.75 0 61-8 47.25q-6 19.5-22.25 29t-40.25-0.5q-11.5-5-20-19t-13.5-33.25-8.25-40.75-4.25-42z" horiz-adv-x="822" />
<glyph unicode="&#x26;" d="M20 375q-1.5 38.5 19 81.5 11.5 22.5 40.5 45t87.5 41q-58.5 36-86.25 68.75t-26.25 66.25q2 67.5 40.75 105t119.75 62q-2 19.5-3 33.25t-1 26.75v26q0 13.5 2 30.5 4 2 7.75 2.75t7.75 2.75l41-42 47 26.5 2-2 4-2q-2-11.5-2.5-18.5t-2-16.25-3.5-23.25-5.5-36.5q26.5-1 46.25-4.5t36.75-8.5q8-2 15.75-4.75t16.25-4.75q13.5-5 27.5-6l1-1-34.5-42 16-20.5q-19.5 1-47 2t-56 0q-33-1-62.75-5t-43.75-18.5q-25.5-24.5-33.25-46t-2.75-39 20.5-31.25 35.5-22.75q29.5-13.5 62-20.75t64-12.25l-30.5-36q6-6 11-12 5-5 10.25-11.25t10.25-11.25q-16.5-2-38.25-5.75t-43.75-9.75-41.5-14.25-31-20.75q-26.5-29.5-34.75-55.75t4-45.5 45.5-30.5 89.75-10.25q23.5 0 44.5 2t47.5 6q-1-5-1-15.5v-8l26-11.5-10.5-21.5q-24.5-4-57.25-7.5t-69.75-8.5q-5-33-13.75-65.75t-13.75-50.25l-19.5 35-49-42q-1 16.5-2.75 48.75t-4.75 67.75q-55.5 4-94.25 23.5t-60.25 49.75-23 68.75z" horiz-adv-x="476" />
<glyph unicode="&#x27;" d="M36 659l7 265.5 29.5-6.5 56.5 35 49-29.5 43 8-115.5-285.5-15.5-8.5-32.5 30z" horiz-adv-x="257" />
<glyph unicode="&#x28;" d="M36 493.75q0 62.75 2 115.25 1 24.5 8.75 65t20 82 27 77.25 30.25 52.25q24.5 26.5 59.75 45.5t71.25 29q2-2 5-4.5t5-4.5l-32.5-46 53-23.5v-6.5q-33-24.5-54.25-70t-33.5-102.25-16-118.75-1.5-120 9.25-105.5 16.5-75q3-10 10.75-25t18.5-31.5 25.5-31.75 33.25-26.75q-8-5-18.5-11.25t-23.5-13.25l27.5-44q-2-2-3.5-2.5t-3.5-2.5q-4-4-6.5-5-19.5 1-41.25 7t-43.5 15.75-40 21.5-29.75 25.25q-30.5 37-46.5 92.25t-22.5 117.25-6.5 124.75z" horiz-adv-x="313" />
<glyph unicode="&#x29;" d="M14.5 878.5l42-6.5 7 50.5 34-3.5 9 29q18.5-9 41-22t40-25q22.5-17.5 41-47.75t30.75-64 19.25-66 9-51.75q4-58.5 4.75-119.5t-5.5-120.75-20.5-118.75-37.75-112q-10-23.5-28-44t-40.75-37.5-49.25-30.25-55-20.25q-9 6-16.5 13l1 2q3 3 5 7.5 6 10 6 18.75t-4 14.75q-11.5 16.5-14 32 33 20.5 54.75 64t35 99.25 19.5 117.25 6.25 118.25-4.5 102.75-13 70q-3 10-13.75 30t-26 42.5-34.75 44-42 34z" horiz-adv-x="313" />
<glyph unicode="&#x2a;" d="M29.5 795.5l8.5 19.5 34.5 14 6.5 30 116.5-75 2 133 46 9.5 13.5 25.5 19.5-3 4-163 137.5 81q-2-2-3.75-8.75t-3.75-13.75l-4-18.5 24.5-32.5-96-79 122.5-83-4-18.5-38-14.5-15-17-117 67.5-5-134-45-15.5-36 2-4 161.5-108.5-92-35 19.5-14 35 123.5 98z" horiz-adv-x="480" />
<glyph unicode="&#x2b;" d="M23.5 465.5l41 35-18.5 68.5 116 10.5 1 145 55 3.5 33 35.5 31.5-2v-177l126 9 2-17.5-35.5-49 34.5-36-3-19-126-29-9-164h-55.5l-44 4.5-7 145-135.5-8z" horiz-adv-x="431" />
<glyph unicode="&#x2c;" d="M18.5 76.5l45 279.5 6 1 20.5-37 77 27 20.5-23.5 25.5-2.5-136-263-10.5 31z" horiz-adv-x="256" />
<glyph unicode="&#x2d;" d="M46 519l24.5 19.5-17.5 39.5 211 16.5-33.5-20.5 41-58-57.5-37 22.5-34-181-34.5-7.5 15 48.5 39z" horiz-adv-x="310" />
<glyph unicode="&#x2e;" d="M32.75 182q-1.25 21.5 4.25 56.5 3 23.5 17.25 41.75t34.75 28 43.5 9.75 43.5-13q6-4 9.75-22.5t2.25-41.5-8.75-45-20.75-33.5q-12.5-10-28.25-17.25t-31-10.25-28-1.5-19.25 7.5q-18 19.5-19.25 41z" horiz-adv-x="236" />
<glyph unicode="&#x2f;" d="M10 112.5l198 830.5 31.5 8 15.5-69.5 58.5 105.5 36.5-16.5-222-851-39 28.5-50-44z" horiz-adv-x="353" />
<glyph unicode="&#x30;" d="M40 601q2 31.5 15.75 76.5t33.75 89.5 44 81 46.5 51q19.5 12.5 43.25 21t48.75 13.5 50 6.75 48.5-1.75l-14-88 72.5 31 7-32 50.5 10.5q36-47 58.5-115.75t23.5-150.75q1-90-10.25-166.75t-32.75-135.75-52.75-98.25-70.25-54.75q-27.5-11.5-61.5-16.5t-68.75-3-67 11.75-57.75 27.25q-71.5 50-94.5 162.25t-13 281.25zM166 539.5q0-8 1-41.5t6-74.5 16.75-80.75 32.25-59.25q13.5-13.5 31-17.5t34.75-2.5 33.25 7 26 13q17.5 12.5 31.75 40t24 60.25 15.5 66.5 5.75 59.25q0 34 0.5 68.75t-5.25 67-20.5 61.5-45.25 52.75q-13.5 10-27.75 12.75t-28.75 1.25-27.75-7.25-24.75-12.75q-20.5-13.5-34.75-41.25t-23.5-59.25-14.25-62.75-6-50.75z" horiz-adv-x="602" />
<glyph unicode="&#x31;" d="M40 786l206 176 29.5-57 50 30.5-6-674.5 114.5 1 6.5-31-51.5-35.5 49.5-32-27-27.5-319.5-5 38 31.5-56.5 36 32 19.5-18.5 37.5 116 13.5-18.5 478-92.5-45-17 11.5 35.5 69.5z" horiz-adv-x="467" />
<glyph unicode="&#x32;" d="M41 156.5l25.5 28.5q-8 14.5-15.25 25.75t-9.25 16.25q10 16.5 29.5 49.25t43 75.25 49.25 91.5 49.25 98.5q19.5 41 37 79.75t28.25 71.5 13.25 59-7 41.75q-7 11.5-29 15.25t-51.25 3.25-62.5-5-61.75-9.5l28.5 43-42 16.5 27.5 35.5q-4 3-8 7.5-4 3-8.25 6.5t-9.25 7.5q31.5 12.5 72 23.25t83 16.25 83 4 73.5-14.5q58.5-23.5 72.75-74.75t-9.25-122.25q-20.5-61.5-44-117.25t-50.5-112.75q-26.5-57.5-58.25-117.5t-70.75-132.5q30.5 0 63.5-0.5t63.25-1 54.75-1.5 40-1l10-28-70.5-38.5 65.5-24-12.5-30.5h-377.5z" horiz-adv-x="487" />
<glyph unicode="&#x33;" d="M44 194l6 20.5q33 5 70.25 15t73.25 24.25 66.25 33.25 47.5 42.5 18.75 50.5-20 59q-7 10-23.5 15.75t-36.25 8.75-41.75 3.5-39.5 0.5l9 30-21.5 17.5 39 30.5-49 31.5q30.5 16.5 62.75 40t54.75 51.25 27.75 59-18.25 62.75q-20.5 26.5-50.75 32.25t-59.25 3.75q-20.5-2-44-5t-48-7l30 39.5-42 15.5 42 28.5-30 34q38 11.5 82.5 17t87 6 77.75-3 53.75-11q44-17.5 65-57.75t15.5-93.5-37.75-114.75-94.75-121q69.5-23.5 106.5-54.25t46-52.25q14.5-36 9.75-74.25t-24.25-74-50-67.5-67.5-54.25q-53-33-119.25-49.75t-124.75-22.25q1 3 3.5 7.5l8 16-26.5 10.5 53 44z" horiz-adv-x="515" />
<glyph unicode="&#x34;" d="M31.5 417.5l34 512 6 2 18.5-65.5 42 43 11.5-35 29.5 10.5-17.5-359.5 178.5 17.5v394l5 4 40-70.5 53 66.5 20.5-2 3-398 71 9 1-22.5-71-51 59.5-23-23.5-33.5 15.5-20.5-55.5-8 3-250-23.5-5-34.5 42-18.5-64.5-33 6-12 267-254-15v53z" horiz-adv-x="555" />
<glyph unicode="&#x35;" d="M48 531l4 391.5 354.5 16 8-25.5-43-40 62.5-29.5-5-10.5-231.5-19q-2-38-3-76-1-33 0.5-68.75t6.5-64.25q31.5 3 63.5 0.5t59.75-8.25 49.25-14.5 32.5-17.75q17.5-14.5 28.25-40.5t13.75-57.75-1-67.75-15.75-70.25-31.25-65-46-52.25-61-35.25-69.75-22.5-68.5-13.25-57.75-6.5q2 7 7.5 16.75t9.5 14.75l-45 9.5 64.5 44-72.5 14v13.5q17.5 3 43 8.75t52.25 13.25 52.25 18.25 43 24.25q26.5 20.5 41.75 44.5t18.5 48-7.5 44.5-36.25 34q-9 4-30.75 5t-47.75 0-52.25-3-43.75-3l9.5 56.5z" horiz-adv-x="475" />
<glyph unicode="&#x36;" d="M47 485.5q-1 41.5 1 87.5 2 44 6.75 90.25t15.75 89.25q10 43 27 79.25t41.75 63.5 58 44 77.25 20.75q52 5 97.75 3t80.25-12l-8-14.5 13-17.5-76.5-24.5 84-40-7.5-10q-22.5 3-45 4.5t-45-0.5q-30.5-2-60.75-11.25t-58.75-30.75q-18.5-14.5-30.25-33.75t-19.5-45.5-11.25-60.5-7-77.25q46 14.5 87.5 18.5t76.5 1 61-12.25 40.5-20.75q16.5-12.5 31.75-35.75t26-53 15.5-62.5-0.75-63.75q-5-35-12.75-64.5t-20-55-31.75-47.75-48-40.25q-18.5-12.5-54.25-18.75t-75.25-5.75-75.75 8.75-56.75 24.75q-14.5 11.5-30.25 32.5t-29.75 52-23.75 72-10.75 92.5q-1 32.5-2 74zM186.5 362.75q3-26.25 10.75-49.75t19.75-39q13.5-17.5 33.5-24.5t40.5-5.5 37.75 9.25 26.75 18.75q12.5 16.5 20 41.5t9 52.75-3 54.75-17 46.5q-9 15.5-31.5 24.75t-48.25 10.25-48.75-8.25-34.5-30.75-14.75-48-0.25-52.75z" horiz-adv-x="554" />
<glyph unicode="&#x37;" d="M39 915l2 16.5 349 26.5-10-53 58.5 5-3.5-44 32-2-254-707.5-26.5 14-22.5-14-3 66.5-77-87-8 4 207.5 660.5h-198.5l15.5 29.5-41 21.5 61.5 44z" horiz-adv-x="459" />
<glyph unicode="&#x38;" d="M32.25 371.25q2.75 56.25 26.75 111.75t73 100.5q-33 45-50.75 94t-20.25 94.25 11.25 84 45.75 63.25q19.5 15.5 48.5 27.25t62.75 18 69.75 6.75 67.5-6.5l-10-70 63.5 18.5v-33.5l53 8q19.5-33 26.75-71.25t-0.5-78.25-31.75-79-67-72.5q40-20.5 66-54.25t38.75-74.25 13.75-84-8-84.5-27.5-75.25-45-56.75q-17.5-14.5-45.75-24.25t-61.5-14.25-68.5-4-67.5 7-59 19-42.25 30.5q-31.5 39-48 91.25t-13.75 108.5zM160.25 348.25q0.75-28.25 9.25-53.75t28-44q9-9 27.5-15.75t39.5-7.75 42 5.25 35.5 23.25q16.5 20.5 26.75 48.25t11.75 57-5.25 57.25-21.75 49.5q-13.5 17.5-38 23.75t-51.25 3-49.25-14-30.5-26.75q-11.5-21.5-18.25-49.25t-6-56zM184 740q0.5-26.5 7.5-51.75t20.5-38.25q18.5-18.5 50.25-22.5t58.25 11q22.5 13.5 34.25 40t13.75 56.25-6 56.5-25.5 40.75q-11.5 8-28.25 13.25t-35.25 5.25-36-5-28.5-16.5q-13.5-13.5-19.5-38t-5.5-51z" horiz-adv-x="550" />
<glyph unicode="&#x39;" d="M33 689q1 31.5 8.5 66.75t20.5 68.25 30.75 61 39.25 46.5q25.5 21.5 66 31.25t83.5 9.25 82-9.75 59.5-23.75q18.5-13.5 33.25-38t25.5-55.5 18.5-65.5 11.75-67q5-42 7-92.75t-1.5-104.5-12.25-107.5-23.5-100.75-37.25-85-52.5-59.5q-21.5-15.5-55.25-24.75t-73-12.25-80.25 1.25-77 14.25q4 4 9.75 8.25t9.75 6.25l-20.5 26.5 80 7-75 55.5 1 1q21.5-2 45.5-4.5t48.25-3 47.25 3 43.5 14.5q16.5 9 28.75 26.5t20 39 11.75 46.25 5 49.25q-39-6-77.25-7t-71.75 2-58.5 9.5-35 16q-46 40-68.5 103.5t-17.5 148.5zM164.5 704.75q-3.5-33.25 1.5-69t21.5-69.75q12.5-24.5 34.75-35.25t47.5-10.75 47.75 9.25 35 25.25q15.5 21.5 21.5 55t4 70.25-10.25 72.5-20.75 62.75q-6 14.5-25.5 22t-42 8.5-43.5-5.75-30-19.75q-15.5-22.5-26.75-52.25t-14.75-63z" horiz-adv-x="539" />
<glyph unicode="&#x3a;" d="M32.75 182q-1.25 21.5 4.25 56.5 3 23.5 17.25 41.75t34.75 28 43.5 9.75 43.5-13q6-4 9.75-22.5t2.25-41.5-8.75-45-20.75-33.5q-12.5-10-28.25-17.25t-31-10.25-28-1.5-19.25 7.5q-18 19.5-19.25 41zM58.5 552.5q-1 21.5 4 56.5 3 23.5 17.25 42t34.75 28.25 43.5 9.75 43.5-13.5q6-4 9.75-22.5t2.25-41.5-8.75-45-20.25-33.5q-12.5-10-28.25-17.25t-31.25-10.25-28.25-1.5-18.75 7.5q-18.5 19.5-19.5 41z" horiz-adv-x="256" />
<glyph unicode="&#x3b;" d="M18.5 76.5l45 279.5 6 1 20.5-37 77 27 20.5-23.5 25.5-2.5-136-263-10.5 31zM58.5 552.5q-1 21.5 4 56.5 3 23.5 17.25 42t34.75 28.25 43.5 9.75 43.5-13.5q6-4 9.75-22.5t2.25-41.5-8.75-45-20.25-33.5q-12.5-10-28.25-17.25t-31.25-10.25-28.25-1.5-18.75 7.5q-18.5 19.5-19.5 41z" horiz-adv-x="256" />
<glyph unicode="&#x3c;" d="M26.5 507.5l177.5 424 26.5 13.5 39-31 48 31 22.5-21.5 7 2-172-389 193.5-412-5-5-50 23.5-45-49-27 2z" horiz-adv-x="385" />
<glyph unicode="&#x3d;" d="M51 345l43 28.5-26.5 51 249 16.5 15.5-30.5-40-30 13-51-244.5-33 5 28zM54.5 596.5l16 26-3 48 247 9 1-18.5-31-43 31-37.5-6.5-16.5-236.5-26.5 12.5 28.5z" horiz-adv-x="357" />
<glyph unicode="&#x3e;" d="M29.5 931.5l4.5 4 50-22.5 46 48 25.5-2 215-411.5-177-424-26.5-13-39 31.5-47-30.5-23.5 20.5-7.5-2.5 172 390.5z" horiz-adv-x="382" />
<glyph unicode="&#x3f;" d="M63.5 890.5l24.5 21.5q-2 3-5 7-2 3-5.75 6.75t-5.75 7.75q59.5 17.5 118.5 22.5t121.5-3q50-6 89-31.75t63.5-62.5 33.75-80.75-1.25-88q-8-33-30-59t-54.25-48-72.75-40.5-85.5-35q-6-17.5-10.25-33.75t-7.25-31.75q-3-14.5-4-26.75t-3-20.25l-15.5-13.5-43 39-16.5-52-13 2q-2 12.5-5.25 33.25t-6.25 45-5.5 49.75-2.5 48q18.5 10 44 22.5t52 26.5q36 20.5 63.5 44t35 47.5q9 29.5 3 54.5t-21.5 43.5-38.5 30.25-47.5 13.75q-29.5 2-65.5 2t-75-7l40 42zM91 146.75q-4 10.75 0 23.5t16.5 26.5 35 27.25q7 4 21.25 6.5t30.25 3.5 29.25 0 17.25-4q5-3 10.25-13.25t5.75-23-5.75-26.5-24.25-26.25q-11.5-8-30.5-11.75t-37.25-5.25-33.75 0-19.5 4.5q-10.5 7.5-14.5 18.25z" horiz-adv-x="512" />
<glyph unicode="&#x40;" d="M58.5 550q3 65 15.25 127.5t34.75 114.25 55.75 90.25 77.25 54.5q27.5 2 64.5 3.75t75.5 2.25 73.75-1.75 59.75-7.25q38-19.5 63.5-59.5t39.5-91.5 17-110.5-2.75-116.25-19.5-108.5-34.25-87.25q-14.5-25.5-29.75-41.25t-35.25-25-47-13.5-64-5.25l-1 47q-44-20.5-74.75-28.5t-58.25-7q-19.5 21.5-29.75 58.75t-14 82.5-0.5 95.25 11.25 97.25 19.25 87 25.75 66.75q10 2 27 3.5t36 1 38-4 33-12q17.5 4 34.5 6.75t27 2.75q0-46 0.5-91.75t2.25-94.75 2.75-103.5 1-119q11.5 13.5 17.5 21.75t11 16.25q51 73.5 50 161-1 35-2.5 72.75t-5.5 73-11.25 66-18.25 51.25q-10 8-31.75 14.25t-48.25 9.25-56.25 4.5-56.5 0.5-48.75-3.5-32-5.5q-36-33-59.5-81.5t-35.25-105.75-12.75-118.75 8-120 27.5-110.25 45-88.25q19.5-6 46.25-9.25t57-4.25 60.5-0.5 55.75 3.5q1-2 1-3t1-3l-26.5-14.5 19-26.5-28.5-19.5 8.5-11q-23.5-4-54.75-5.75t-64.25-1.75-65.25 2-57.75 5.5q-30.5 24.5-53.5 68.5t-38 99.75-21.5 120.25-3.5 129.5zM303 510.5q0-30.5 7.25-61.25t13.25-51.25q16.5-4 36-4.5t46 8.5q-1 75-4.5 141t-2.5 141.5q-25.5 5-46.5 2t-26.5-19q-8-24.5-12.75-43.5t-6.75-37-2.5-36.5-0.5-40z" horiz-adv-x="681" />
<glyph unicode="&#x41;" d="M10 128.5l162 802 20.5 11.5 40-45.5 66.5 57.5 67.5-83 43 74h6l174.5-799-18.5-8-52.5 69.5-18.5-59.5-37.5 23.5-20.5-20.5-39 120-238.5-2-30-136-26.5 15-17.5-16-19.5 58-49-69.5zM194.5 392l197.5 13-77.5 328-41 7z" horiz-adv-x="596" />
<glyph unicode="&#x42;" d="M31.5 924.5q73.5 23.5 158 32.5 38 4 73.5 4.5 44 0 85-6.5 43-6 78-19.75t60-35.25 38.75-51.75 13.75-71.25q0-12.5-5.5-33.5t-20.5-46.5-40-54.75-63-58.75q58.5-29.5 92.75-60.5t50.75-60.5 18.5-57.5q0.5-8 0.5-15.5 0-19-3.5-35.5-10-42-48.5-81.5t-90.75-72.75-111.75-58.75-109.5-40q-3 8-7.25 18.25t-9.25 29.75l-60.5-20.5-18.5 38-47-13v602l-19.5 26.5 48 29.5-57 41 22.5 30zM194.5 715.5q0-51 8.5-119 37 10 65.5 24t50.5 29 36.25 29.25 21.75 25.25q15.5 24.5 15.5 44.5 0 11.5-5.5 21-14.5 26.5-45 41-25.5 11.5-59.5 11.5h-5.5q-37.5-1-80.5-21.5-2-34-2-85zM200.5 373q0-29 1.25-63.5t5.25-69q39 16.5 75.25 32.75t64 36.25 42.75 45q13 21 13 47 0 5-0.5 11-3 31.5-25.5 48t-53 21q-14.5 2-29 2-16.5 0-34-2.5-33-5-55-15.5-2-15.5-3.25-39.5t-1.25-53z" horiz-adv-x="593" />
<glyph unicode="&#x43;" d="M29 505.5q1.5 49 6 92 4 49 19.25 101t41 97 62 80.25 83.25 52.75q39 14 85 14h9.5q51-1.5 113.5-28.5l4-19.5-63.5-34.5 55.5-53.5-35-17.5 19.5-33.5q-21.5 6-44.5 9-17.5 2.5-34.5 2.5l-11.5-0.5q-23-1-45-7.5t-40.5-22q-20.5-16.5-36.5-51.75t-25.75-79.25-12.75-93.5q-1-17.5-1-34 0-31 3.5-59.5 5.5-44.5 21.5-79.25t42.5-50.25q15.5-9 37.5-12 15.5-2 32-1.5h13q23 1 45.75 4.75t40.75 7.75q-2-5-2.5-11.25t-2.5-12.25q-2-7-3-14.5l49-23.5-77.5-51 66.5-17.5-8.5-18.5q-45-16.5-97.5-20-13.5-1-27-1-38.5 0-75.5 7.5-49.5 10-91 34.75t-63 64.75q-21.5 39-32.75 85.5t-15.75 95.5q-3.5 37-3.5 74-0.5 12 0 24.5z" horiz-adv-x="495" />
<glyph unicode="&#x44;" d="M34 846.5l35.5 32-6 12q-3 5-6 11.75t-6.5 13.75q70.5 16.5 137 23 37.5 4 71.5 4 26.5 0 51.5-2.5 57-5 100.75-20.75t70.75-43.75q41-43 64-98.25t29.5-117.75q3.5-31 3.5-63.5t-3.5-66.5q-6.5-67.5-25-134-20.5-77-66-129.25t-100.5-85-111.25-48.5-99.25-21.75l4 52-68.5-8 10.5 56-62.5-2 5 549-23.5 10 53 44zM191 542q0.5-63 2.5-127.5t4-126q11-2.5 22.5-2.5 15 0 30 4.5 26.5 8 50 22.5t41 31.25 23.5 26.25q34 48 49.25 98.25t16.75 95.75q0 6.5 0.5 13 0 38-8 71-9 38.5-25.5 64-17.5 27.5-40.5 42.25t-49.5 21.25q-19.5 4.5-40 4.5-7 0-14-0.5-28-2-54-9-5-49-7-108-1.5-46.5-1.5-96v-25z" horiz-adv-x="594" />
<glyph unicode="&#x45;" d="M26.5 885.5l23.5 16.5-14 23.5 352 20.5-15.5-21.5 27-17.5-49.5-24.5 50.5-41-9.5-20.5-180-19.5-5-193.5 192.5 7 5-18.5-41-45 35-20.5-5.5-21.5-184-25.5 5-225 185.5 8 4-14.5-62.5-25.5 69.5-24.5-26.5-38 13.5-21.5-232.5-19.5 8 35-68.5-3 3 61.5-48-8.5 2 576.5h-26.5l-6.5 20.5 72 47z" horiz-adv-x="458" />
<glyph unicode="&#x46;" d="M10 895.5l6.5 15.5 397 27.5-11-25.5 25.5-34.5-72.5-32 64.5-20.5-2-11-204-24v-225l144.5 7-12.5-27.5 29-25.5-20.5-42 11-15.5-152.5-23.5 10-312.5-22.5-8-36.5 83-24.5-82-31 22.5-26.5-12.5-10.5 649.5h-27.5l10.5 38-15.5 9 58.5 36z" horiz-adv-x="452" />
<glyph unicode="&#x47;" d="M29.5 501.5v13.5q0 56.5 8 110 8.5 60 28 113t48 91q31.5 42 84 66.75t109.5 33.75q38 6 75.5 6 18.5 0 36.5-1.5 54.5-4.5 90-20l3-15-89-21.5 68.5-38-28.5-28q2-7 2.5-13t2.5-12.5q-8 0-15.75 0.5t-16.25 0.5q-26.5 0-54-2.5t-54.25-9.75-50.75-20-43.5-33.25q-27.5-29.5-39.5-81-11-47-11-98.5 0-4.5 0.5-9 1-56.5 14.25-108.5t36.75-83q16.5-22.5 44.5-27.5 20-3.5 40.5-3.5 8 0 16.5 0.5 33 3 69.5 12.5l-7 206.5 12 5 36-59 37 80.5 25.5-14 19.5 8 8-442.5-19.5 12.5-20.5-23.5-32.5 64.5-32-54.5-14 3.5-4.5 64.5q-37-9-75-15.5-35.5-5.5-69-5.5h-5.5q-36 0.5-68 9.5t-56.5 30.5q-36 30.5-59.5 79.25t-36.5 106.75-14 121.5z" horiz-adv-x="581" />
<glyph unicode="&#x48;" d="M45 123.5l12.5 803 19.5-6 18 14 37-78.5 45 80.5 23.5-4-3-302 230.5 7 6 302 23.5 6.5 30-75 43 73 29.5-23.5 18.5 8-17.5-800-23.5-16-23.5 98-29.5-86-35 22.5-17.5-8 1 306-242.5-12-10.5-290-27.5 7-26.5-31.5-33 71.5-34.5-70.5z" horiz-adv-x="615" />
<glyph unicode="&#x49;" d="M49 128.5l2 786.5 28-3 31.5 23.5 40-105.5 45 118 22.5-3-11-805-35 19.5-29.5-38-31 81-33.5-82z" horiz-adv-x="266" />
<glyph unicode="&#x4a;" d="M30.5 147l3.5 14.5 67.5 15.5-61.5 48 19.5 18.5q-1 6-2 13-1 6-2 12.75t-2.5 14.25q17.5-5 36.5-8.75t36.5-5.75q13.5-1.5 26.5-1.5 6.5 0 13 0.5 19 1 34.25 6.75t26 16.5 14.75 27.75q17.5 70.5 21 152 1.5 38 2 76.5 0 44-2.5 88-4 75-11.25 149.25t-12.25 144.75q5-1 11.75-1t11.75-1q6-1 11.5-1l41 34.5 35.5-96 27 87q5-1 11.5-2.5t15-2.5q5-113.5 8-235 2-73 2-148 0-50-1-101.5 0-34-2.5-80.5t-10.25-92-22.5-84-40.25-55q-36-22.5-77-30-32.5-6-64.5-6l-17.5 0.5q-41 2-79 11t-67.5 20.5z" horiz-adv-x="462" />
<glyph unicode="&#x4b;" d="M35 128.5l10 798 26.5-6 11.5 10 39-70.5 39 83 22.5-1-2.5-400.5 209 392 24.5-18.5 42 10.5-12-76 65.5 55.5 12-7.5-157.5-321.5 150.5-391-13-18.5-70 49.5v-66l-26.5 13.5-24.5-16.5-136.5 350.5-72.5-103.5 1-245-30.5 11.5-22.5-16.5-38 47-33-66.5z" horiz-adv-x="531" />
<glyph unicode="&#x4c;" d="M30.5 207.5l5.5 709.5 36.5-17 31 43 45-71 31.5 57.5 10.5-4-11.5-661.5 189.5 5 6.5-22.5-90.5-37 84-30.5-31.5-41 25.5-18.5-257-10 7 44-45 2 6 52h-43z" horiz-adv-x="402" />
<glyph unicode="&#x4d;" d="M4 132l108.5 794.5 28-5 24.5 13 31.5-96 37 85 30.5 8 110-403.5 23.5-3 120.5 399.5 25.5-12.5 50.5 35 36-25.5 27.5 4 93-788.5-35.5 26.5-23-40-47 61.5-23.5-69.5-14.5 1-48 429-23.5-5-126-409.5-5-2.5-37 85-17.5-79.5-10 1-110.5 398-21.5 1-58.5-409.5-11.5 5-24.5-11-34.5 65.5-60.5-59.5z" horiz-adv-x="766" />
<glyph unicode="&#x4e;" d="M46 146l16.5 789.5 31.5 6.5 64.5-74 30 79 12-6.5 190.5-395 28 9 2 368 20.5-14.5 21.5 27.5 34.5-51 40 51-9-789.5-8.5-3-39.5 78-26-81-24.5 15.5-19.5-11.5-199.5 420-22.5-2-13.5-423-14-6-37 62.5-37-53.5-15.5 10.5z" horiz-adv-x="579" />
<glyph unicode="&#x4f;" d="M29.5 536.5q1 48 5.25 89t10.25 65.5q14.5 65.5 38.5 110.5t55.75 74.25 71.25 43.5 84.5 19.25q6 0.5 14 1 4 0 8.5-0.5 13.5-0.5 24.5-1.5l11.5-72.5 61 24.5 15.5-70.5 64.5 16.5q20.5-26.5 34.25-54.75t18.25-64.25q9-79 10.5-158 0-11.5 0.5-22.5 0-67-8-127.5-9-70.5-31.25-128t-59.75-92.5q-39-36-90.5-50.5-46.5-13.5-91.5-13.5h-9q-49.5 1.5-91.75 15.5t-61.75 34.5q-26.5 26.5-43.25 68.5t-26.5 91-13.25 102q-2.5 39.5-2 76.5-0.5 12.5 0 24.5zM172.5 527v-17q0-54 8-107 9.5-61.5 36.5-102.5 8-12.5 28-21t43.5-9.5h4q21 0 41 8.5 22 9.5 35 34.5 26.5 50 36.5 109 8.5 51 8.5 99.5 0 7.5-0.5 15.5-1.5 56-11.25 103.5t-21.75 75q-15.5 35-40 47-19.5 10-40.5 10-5 0-10-0.5-26-3-49.25-18.5t-33.25-35q-13.5-23.5-23.25-76.25t-11.25-115.25z" horiz-adv-x="589" />
<glyph unicode="&#x50;" d="M20.5 874l6 30q52 20.5 113 30.25t118 9.75 104-10.75 73.5-31.25q38-30.5 58.5-75.25t26-93.25q2-18.5 2.5-37 0-30-6-59-9-47-30.5-82-46-73.5-122.5-117t-167.5-67q-2-27.5-3.5-60.5t-2.5-65.25-1-61.25v-49.5l-22.5-11.5-52.5 107.5-42-87-16 13.5q-1 25.5-1.75 68t-2.25 94.75-2.5 110-1.5 115.75q-0.5 29-0.25 56.75t0.25 54.75q0.5 54 1.5 98l26 39-28 15 60.5 55.5zM189.5 520q24.5 3 46.5 10.75t40.5 16.75 31.75 18.75 20.25 16.25q15.5 14.5 28.75 35.25t20.75 43.75q5.5 18 5.5 37 0 5.5-0.5 11-2 24.5-18.5 46-18.5 24.5-41 32.5-20 7.5-41 7.5h-5q-23.5-1-45.5-9.25t-39.5-16.75q-2-58.5-2-120.25t-1-129.25z" horiz-adv-x="551" />
<glyph unicode="&#x51;" d="M23.5 435q-1 18-1 39.5 0 27 1.5 59 2.5 58 13.25 119.5t31.25 118.75 56.5 98.25q25.5 29.5 65.5 47t82.5 23q22.5 3 44 3 20 0 39.5-2.5 41-5 69.5-19 24.5-12.5 44.5-31.5t35.25-47.5 27.25-69.5 20-97.5q8-57 8-113 0-58-8.5-115-17-112-89.5-223.5 23.5-23.5 42-43.5t31.5-34.5l-6-8-70.5 15.5 4-53.5-13.5-2q-8 11.5-20.75 29.25t-28.25 37.25q-86.5-36-152.5-36h-4q-67 1-105.5 28-56.5 39-83.75 108.5t-32.25 170zM154 444.5q3.5-63 24-109 18.5-43 54-52.5 15-4 33.5-4.5 26 0 59 8-14.5 23.5-24 41t-18 31.5l25.5 5 12.5 35 47-52q24.5 60.5 32.75 115.75t8.25 114.25q0 31.5-2 56.75t-6.5 46.75-12.75 41-20.75 40q-14.5 23.5-35 33.5-20 9-40 9h-2q-21-0.5-39.5-9.75t-29-22.25q-27.5-37-41.75-85.25t-21.75-112.75q-5-44.5-4.5-87 0-21.5 1-42.5z" horiz-adv-x="583" />
<glyph unicode="&#x52;" d="M30.5 841.5l24 32.5-7.5 7.5q-3 4-6.5 8.5t-5.5 11q42 12.5 99.75 23t118.25 13.5q19 1 38 1 40.5 0 79.5-4.5 57.5-6.5 99.5-29 51-27.5 73-83 17-43 17.5-92 0-13.5-1.5-27.5-6-64-39.25-126.5t-92.75-103q18.5-40 42-88.75t45.5-93.25 38.5-77.75 21.5-42.75l-14.5-13-85 60.5 15.5-75-28.5 8-16.5-18-166 272-86-21.5q-3-52-5-98-1-19.5-2-39.5t-1.5-37.5-1-31.75-0.5-21.25l-9.5-7.5-40 59.5-24.5-64.5-36 43-12-11q0 29.5-0.5 72t-0.5 91.75-0.5 102.5-0.5 105.75v194l-18.5 17.5 68.5 60.5zM195.5 518q33 9 69.25 21.75t67 31.75 51.25 44.5 22.5 61.5v8.5q0 35-16 56-18 23.5-48 33-22.5 7-49.5 7-9 0-18-1-37.5-3-73.5-13.5-1-61.5-3-123.25t-2-126.25z" horiz-adv-x="594" />
<glyph unicode="&#x53;" d="M30.5 617.5q-2.5 15-2.5 30.5 0 19.5 4.5 40 7.5 37 27 76.5 18.5 38 59.25 71.75t93 60 110.25 43.5 111 23.75l-14-34 42-13.5-64.5-52 86-21.5-7.5-34q-36-6-79.25-17.25t-81.75-27.75-66.75-39.5-33.25-52.5q-1-6.5-1-13 0-24.5 16.5-43 20.5-23 51.75-39.25t65-28.75 54.25-22.5q23.5-12.5 44-29.25t33.25-40.75 16.25-56q1-9 1-18.5 0-25-6.5-56-12.5-53-51.75-94.25t-96.75-67.75q-55.5-25.5-119-35.75t-122.5-12.25l-9.5 10 55.5 48-60.5 16.5 20.5 17.5q-2 6-5 11.5-2 5-5.25 10.5t-6.25 13q35 4 81.5 12.75t84.5 22.75q15.5 6 34.75 18t29.75 29q7 11.5 7 25.5 0 6-1.5 12.5-4.5 21.5-35 47.5-20.5 17.5-41 29t-41 22q-20.5 10-41.5 20.25t-43.5 22.75q-41 22.5-63.25 51.5t-28.25 62.5z" horiz-adv-x="511" />
<glyph unicode="&#x54;" d="M29.5 776l55.5 35.5-54.5 40 31 46-13.5 19.5 408.5 18.5-16-36.5 31.5-29-70.5-40 70.5-17.5-3-28.5-154.5-9-4-620.5-28-12.5-54 80-41-78-10.5 8.5-2 619.5-139-12.5z" horiz-adv-x="496" />
<glyph unicode="&#x55;" d="M31.5 542.5q0 53 3.25 112.5t6.75 113.25 7.5 95.75 6.5 62.5l14 7 22.5-29.5 27 27.5 27.5-86 52 68.5q-5-39-9.5-91t-7.25-109.5-3.25-115.5v-14q0-50 3.5-94.5 3.5-50.5 11-90.5t21-59.5q18.5-26.5 40-35.5 17.5-7.5 36.5-7.5h8.5q23.5 2 47.5 11.25t46.5 19.75q0 42-0.5 97.25t-0.5 115.75-0.5 121.75-0.5 114.75v153.5l17.5 10 45-95 39 87 24-3t27-3q0-27.5 0.75-79.25t0.75-118.75v-144q0-77-1.25-155.25t-2.75-152.5-3.5-135.75l-12-7-38 76.5-38-68.5-32.5 8-4.5 42q-47-24.5-95.5-39.75t-91-19.75q-19-2-36.5-2.5-21 0-39 3.5-33 5.5-46 21-35 40-54 140.75t-19 247.25z" horiz-adv-x="586" />
<glyph unicode="&#x56;" d="M8 920.5l8.5 6 75.5-81 11.5 69.5 31.5-20.5 24.5 24.5 110-559 12-2 126 570.5 29.5 3 13.5-91 60.5 80 30.5-9.5-178-773-34 16.5-33.5-28-49 60.5-32-56-20.5 7z" horiz-adv-x="551" />
<glyph unicode="&#x57;" d="M15.5 913l9 5 40-82.5 37 80.5 28.5-17 11.5 7 58-394.5h25l93 382 22.5 7.5 29.5-89.5 33 103.5 44-22.5 68.5-374.5 26.5-5.5 88.5 404.5 28.5 13.5 13-89 71 88 15.5-10.5-132.5-785-23.5-4.5-21.5 100.5-45-76.5-39 45-23.5-55.5-26.5 10.5-66.5 389-17.5 2-112.5-398.5-33 23.5-32.5-33.5-25 76.5-45-63.5-10 4.5z" horiz-adv-x="760" />
<glyph unicode="&#x58;" d="M27.5 899l24.5 2 14.5 41 46-17.5 28 22.5 118.5-271.5 124 279.5 11 2 31-58 49 36.5 12.5-7-138.5-364.5 145.5-408.5-3-2-57.5 29.5-10-50-25.5 11-28-14.5-116.5 283-116-287-29.5 11.5-39-6-18.5 31.5-19.5-2 137.5 368.5z" horiz-adv-x="507" />
<glyph unicode="&#x59;" d="M17.5 896.5l32.5 5.5 8.5 16 57-49v79l25 1 140-314.5 131 325.5 23.5 4.5-5-84 73 63.5 11-13.5h24.5l-187.5-439.5 2.5-344-28 6.5-20.5-18.5-42 60.5-36.5-72-17.5 2-9.5 344z" horiz-adv-x="540" />
<glyph unicode="&#x5a;" d="M26.5 203.5l242 620.5-212-7-4.5 11 49.5 33-43 26.5 19.5 22.5-10.5 30.5 374 14.5 10-23.5-40-53 47.5-11.5-253-599 232.5 3-15.5-32.5 17.5-16.5-58.5-26.5 68.5-31-8-14.5-335-22.5 5 44-50-9 5 47z" horiz-adv-x="487" />
<glyph unicode="&#x5b;" d="M67.5 113.5l1 805.5 258 16.5 7.5-23.5-34-14.5 29.5-46-37.5-24.5 6-26.5-109.5-13.5-15.5-515 139.5 1 6-27.5-37-18.5 34-40-26.5-25.5 7-36z" horiz-adv-x="365" />
<glyph unicode="&#x5c;" d="M15.5 931.5l17.5 9 33.5-49 45 42 34-36 26.5 18.5 193.5-780-21.5-23.5-23.5 21.5-39-38-27.5 16.5-29.5-13.5z" horiz-adv-x="377" />
<glyph unicode="&#x5d;" d="M36 811.5l35.5 19.5-28.5 53.5 25.5 15.5-7 24.5 239.5 20.5-11-808-241-13.5-5 9.5 28.5 12-25.5 57.5 42 17.5-12 46 101 7 7.5 524.5-145.5-13.5z" horiz-adv-x="359" />
<glyph unicode="&#x5e;" d="M33 542.5l146 343 51.5-13.5 26.5 45 43-21.5 35 13.5 151.5-353.5-8.5-13-23.5 18.5-25.5-35-30.5 24.5-33-16.5-114.5 222.5-93.5-222.5-24.5-16-26.5 50-60.5-36z" horiz-adv-x="509" />
<glyph unicode="&#x5f;" d="M43 180l50 47-18 60.5 380.5 22.5 10.5-45-40-47 15.5-42-384-40z" horiz-adv-x="508" />
<glyph unicode="&#x60;" d="M33 879.5l27.5 19.5 67.5-28 17.5 67.5 18.5-2 111.5-155.5-13.5-7-36.5 15-32-34.5z" horiz-adv-x="289" />
<glyph unicode="&#x61;" d="M12.5 147l132 632 41-12.5 37.5 33 56.5-69.5 32 62.5 35.5-21.5 33 19 119.5-647-22.5 15.5-37.5-21.5-29 37-27.5-28-38 138.5-190.5-15.5-36.5-139.5-10.5-4-32.5 41-41-32.5zM180 385.5l146.5 13.5-51 229.5-43-3z" horiz-adv-x="509" />
<glyph unicode="&#x62;" d="M33 712.5l28.5 38-12.5 39.5q50 13.5 103.5 19.5 42.5 5 82 5h19.5q48-1.5 88.5-12.5t64-30q27.5-23.5 42-58.5 12.5-30.5 12.5-65v-10q-2-40-21.5-82.5t-58.5-81q33-14.5 64-38t40.5-55.5q6-20.5 6-39 0-10.5-2-20.5-5-27.5-19-52t-35.5-44.5-44-36.5q-24.5-17.5-56.75-30.25t-68.5-21.5-73.75-12.25q-29-3-56.5-2.5h-15.5v55.5l-49.5-2q0.5 36.5 0.5 73.5 0 74-1.5 150.5-0.5 38-0.5 78.5 0 81 2.5 170.5h-13.5q-5.5 0-11 1l19.5 34.5zM174 326.25q0-34.75 5-78.75 12.5-3 28.5-3 12.5 0 27.5 2 33.5 4 63 17.75t49.5 36.25q17.5 19.5 17.5 47 0 4-0.5 8.5-2 25.5-21.5 39t-47 18q-15.5 2.5-32.5 2.5-13 0-26.5-1.5-31-3.5-56-11-7-42-7-76.75zM177 596.5q-0.5-13 0-27 0-28 1-61 31.5 3 62.5 13.75t54.5 26.75 37.75 35 14.25 37.5q0 24.5-16.25 39.75t-40.75 21.75q-17.5 5-38.5 5-8 0-16-0.5-29.5-2.5-56.5-14-1-38-2-77z" horiz-adv-x="502" />
<glyph unicode="&#x63;" d="M25.5 444q0 29.5 8.75 78.75t27.75 100 50.25 92.25 76.25 56q50 15.5 95.5 21 15 2 31.5 1.5 32 0 66.5-7.5 2-3 3-7.5t3-7.5l-70.5-25 49-27.5-21.5-18.5 8.5-25.5q-13.5-1-30-3t-32.75-5.25-31.25-7.25-26-10q-20.5-10-34.75-37.75t-23-60.5-13-65-4.25-51.75q0-17.5 2.75-41.5t8.75-49.75 16.75-48.75 28.25-37.5q9-8 27.5-12.5t41-6.75 46.25-3.25 44.25-1q-2-2-4.25-5.5t-5.25-8.5l21.5-23.5-51-29 56-20.5q-2-8-4-12-61.5-13.5-123.5-17-9-0.5-18-0.5-51 0-94 17.5-39 15.5-63.5 50.75t-38.25 79.25-19 91.5-5.25 88.5z" horiz-adv-x="422" />
<glyph unicode="&#x64;" d="M34 717.5l24.5 26.5q-1 2-3.25 10.25t-7.25 19.75q28.5 8 69.5 15.25t86.5 8.25h11q39.5 0 80-6.5 46-7 85-28.5 43-23.5 70-64.5t40.5-90.5q13-48 13-101 0-57-13.5-111-13-51.5-37.5-95.75t-59.5-71.75q-59.5-48-129.5-75.75t-140.5-34.75l-7.5 59.5-63.5-8.5 4.5 474.5-12.5 8 31 31.5zM172 647q0-87 1-165 0-33 1-66.75t2-64.5 2.5-55.25 4-40q34 10 63.5 25t54 36.5 42 50.25 25.5 66.75q7 37 9 70.5 0.5 5.5 0 11 0 27.5-6.5 51.5-7.5 28.5-27 50.5t-53 34.5q-13 4.5-31 4.5h-3.5q-20-0.5-38.5-2.5-21.5-3-45-7z" horiz-adv-x="535" />
<glyph unicode="&#x65;" d="M34 726.5l14 33-7 13.5 293 19.5 9-40-63.5-44 60.5-18.5-8-22.5-149.5-13.5-3.5-157.5 149.5 5-17-53.5 29.5-12-5-27.5-155-15.5 6.5-167 154.5 6-10-53 27.5-12.5-11.5-39-241.5-14 4 52-62.5-4 6.5 479-12.5 20.5 44 38z" horiz-adv-x="381" />
<glyph unicode="&#x66;" d="M30.5 703l20.5 29-9 30.5 326.5 15.5-18.5-63.5 24-14.5-10.5-25.5-169-11.5-3-150.5 151.5 3.5-13.5-53.5 31-12.5-6-28.5-164-19.5 6-261-20.5-8-35.5 73.5-32-67.5-12 16.5-28-8.5-6 497-21.5 6 45 27.5z" horiz-adv-x="395" />
<glyph unicode="&#x67;" d="M39 376q-2.5 23.5-2.5 47.75t2.5 50.25q6 62.5 17.25 112t30.75 86.5 50.25 61.5 76.75 39q45 14.5 87.5 16.5 10 0.5 20.5 1 33 0 68-6.5l6.5-12-54.5-20.5 42-39-27.5-18.5 14-26.5q-16.5-1-36.25-2.75t-39.75-5.75-37.5-9.5-28.5-15q-25.5-20.5-41.5-64.5t-19.5-95q-1-14.5-1-29 0-36.5 6.5-72.5 9-50 33-84 12.5-16.5 30.25-25.25t38.25-11.25q9.5-1 18.5-1l22.5 1.5q20.5 3 38 10.5 2 52 4 100 1.5 32 1 60.5v27l19.5 13 33.5-61.5 40 59.5 13.5 4q-1.5-53-1.5-109.5 0-28 0.5-57.5 1-87 3-175l-36-12-27.5 54-45-37q0 5-0.5 11.75t-3.5 18.25q-61-20-111.5-20-11.5 0-22.5 1-59 5.5-91.5 32-21.5 17.5-40.5 47.75t-31.75 69.75-17.75 86z" horiz-adv-x="486" />
<glyph unicode="&#x68;" d="M48 131l8.5 633.5 42-30.5 54 47 22.5-14.5 15.5 5.5-7-277.5 188 13 1 275.5 27-32.5 51 49 36-19.5 14 5-8-658.5-10-2-35 51.5-30.5-50.5-21.5 18.5-30-7 4 242.5-187-14 1-229.5-29-7.5-31.5 39-37-42-19.5 11.5z" horiz-adv-x="541" />
<glyph unicode="&#x69;" d="M50 139v637l22.5 8 34-80 43 77 30.5-16.5 29 10.5-17.5-647.5-12.5-4-43 61.5-29.5-54-26.5 10z" horiz-adv-x="254" />
<glyph unicode="&#x6a;" d="M11.5 150l1 20.5 48 12.5-38 53 16.5 20.5q23.5-10 47.5-18.25t41.5-8.25q12.5 0 26.75 4.75t27 13.75 21.5 22 9.75 29q3 59.5 3.5 122 0.5 31 0.5 62.25t-0.5 61.75q-0.5 61.5-2.5 119.75t-3 109.75l17.5-7.5 23.5 13.5 38-43 36.5 53 15.5-1q1-26.5 2.5-77.25t2.5-116.75q0.5-33 0.5-68.75t-0.5-74.25q-1-77.5-5-156.5-2-44-8.25-79.75t-23-60.75-47.5-39-83.25-14q-27.5 0-49 2.5t-40.5 8.25-37.75 14.25-41.25 22z" horiz-adv-x="384" />
<glyph unicode="&#x6b;" d="M33 767.5l16-8 34 29.5 30.5-61 29 67.5 12-4.5-7-288.5 179 292 17.5-4.5 3-53 75 49 14-24.5 24 2-142.5-231.5 123-353-30-2-5-18.5-49 43-11.5-64.5-16.5-3-111.5 291.5-64.5-76.5-3-218-21.5-8.5-41 77-37-70-16 9.5z" horiz-adv-x="461" />
<glyph unicode="&#x6c;" d="M63.5 754.5l19.5-3 28.5 20.5 30-50.5 53 71 16.5-5.5-17.5-551h169l-42-35.5 57.5-22.5-29-35 10.5-14.5-230.5-17-9 56-54.5-8z" horiz-adv-x="408" />
<glyph unicode="&#x6d;" d="M38 121.5l31.5 667.5 32 13.5 39-89 43 71.5 21.5-21.5 18 15.5 92.5-288h16.5l91 291 29.5-22.5 40 31.5 35-50 45 41 30.5-639-19.5-5-32.5 55-20.5-51-18.5 16.5-25.5-10.5-22.5 312.5-18.5 5-107.5-288.5-18.5 16-19.5-8-105.5 270.5-16.5 2-21.5-317.5-31.5-9-39 62-30.5-76.5z" horiz-adv-x="629" />
<glyph unicode="&#x6e;" d="M47 767.5l45 23.5 36-37.5 45 15 209-379.5h20.5l-6 376.5 26.5 15.5 46-63.5 43 64.5 18.5-3-1-657.5-11.5-7-36.5 38-51.5-36-20.5 4-206.5 325.5-26 3-8-330.5-29.5 4-40 54.5-30-60.5-17.5 9z" horiz-adv-x="574" />
<glyph unicode="&#x6f;" d="M36.5 370q-2 27.5-2.5 55 0 30.5 3 61 10 104.5 29 164t56 91q13.5 11.5 34.25 23.25t46.5 20.5 55.25 12.25q14 1.5 28 1.5l31.5-2-2-59.5 50 30.5 21.5-31.5 34 13.5q38-39 58.25-111.75t20.25-178.25q0-35-4-76.5t-14.25-81.25-27.25-73-42.5-51.75q-36-25.5-72.25-39t-70.75-17q-16-1.5-32-1.5-17.5 0-33.5 2-30.5 4-55.5 13.5-31.5 11.5-54.75 46.25t-37.5 82.75-18.75 106zM158.5 463.5q-1.5-19.5-1-38.5 0-36 5-71 7.5-53 28-85 10-16.5 29.5-24.75t41.5-8.25 42 7.75 30.5 24.25q10 16.5 19.75 47.75t15.5 69 6.75 78.75v11q0 35-6 67.5-6.5 37.5-21.75 67t-41.25 45q-16.5 10-38.5 10h-2.5q-23.5-0.5-40.5-16-29.5-26.5-46.25-77.25t-20.75-107.25z" horiz-adv-x="526" />
<glyph unicode="&#x70;" d="M24.5 748l6 25q42 15.5 96.25 27t108.25 15q14 1 27.5 0.5 38.5 0 73-6.5 46.5-8.5 72-33 41-40 55.5-91.5 10-35 9.5-70 0-16.5-2-33-6.5-52-31.25-101.25t-62.25-85.25q-12.5-11.5-32-23.75t-43.5-23.5-52.25-21-56.75-15.75l-1-178-18.5-6.5-20.5 57.5-41-55.5-26.5 31-20.5-12.5-5 512-22.5 17.5 61.5 63.5zM180 672.5l5.5-240.5q25.5 9 47 19.5 18.5 8 35.75 16.75t25.75 15.75q21.5 19.5 36.75 46t19.75 54q1.5 10 2 19 0 17-5.5 32.5-8 24.5-34.5 41-12.5 7.5-33 8-1.5 0-2.5-0.5-22-0.5-43.5-2.5-26-4-53.5-9z" horiz-adv-x="504" />
<glyph unicode="&#x71;" d="M27.5 430q0 45 3.25 88.5t12.25 83.25 27 76.25 48 66q22.5 22.5 57.25 33.75t71.75 13.25l18 1q27 0 51.5-5 33-6 51-18.5 27.5-18.5 48-47.5t33.5-64.25 19-73.25 6-73q0-20.5 0.5-40 0-6.5 0.5-13 0-13-1-26.5-1-20.5-2.5-39.5t-5.5-38.5q-7-37-24.5-73.75t-59.5-83.75q16.5-18.5 34.25-37.5t26.25-27l-13.5-14.5-43 18.5-5-37-22.5-2q-5 5-18 21t-27 33q-23.5-7-51-11-19.5-3-39.5-3l-14.5 0.5q-27 1.5-53.25 10.25t-48.75 27.25q-19.5 15.5-34.25 45.5t-24.5 65.75-15 74.5-5.25 70.25zM148.5 458.5q-0.5-9-0.5-18 0-18 1.5-37 2-28 8.25-54t16.5-48.75 25.25-35.75q4-4 13.25-5t19.75-1q11.5 0 24.5 1l-25.5 58 26.5-13 18.5 30.5 16-16q11-11 25-24 17.5 26.5 25.5 48.75t11.5 42.75q3 20.5 3.5 36.75t0.5 28.75q0 18.5-1 41.5t-4.25 46.5-9.25 44.5-16.5 35q-11.5 13.5-30.25 22.25t-39.75 9.25h-2.5q-20 0-38.5-8-20-8.5-31-28.5-15.5-27.5-25.25-66t-11.75-90.5z" horiz-adv-x="495" />
<glyph unicode="&#x72;" d="M31.5 749.5l3.5 19q56.5 18.5 113.25 28.25t109.75 10.25h5.5q50 0 93.5-8.5 45.5-9 79-31 30.5-19.5 48.75-49t21.75-66.5q1-9 1-19 0-28.5-8.5-60.5-11-42.5-38-86.5-5-9-15.5-22.5t-22.75-28.75-26.5-30-27.75-26.25q12.5-29.5 26.75-62.25t28-63 26.25-55.5 19.5-39.25l-7-7.5-59.5 33-3-51-20.5 9-18.5-12.5-124 191.5-64.5-25.5-5-153.5-16.5 2-34 53.5-26.5-69-18.5 7.5q-1 30.5-3.5 87.5t-4.5 124-2 136 4 125.5l3 40-32.5 23.5 54 49zM179 427.5q37 14.5 76 39t67.5 53.75 41.5 60.75q6 14 6 28 0 16.5-8.5 32.5-9 16.5-38.5 21-24 4-49.5 4h-11.5q-37-2-81-9.5z" horiz-adv-x="527" />
<glyph unicode="&#x73;" d="M30.5 540.5q4 52 31.25 95t69.75 74.25 94.75 51.25 106.75 26q10.5 1.5 25.5 2 4 0 8-0.5 20.5-0.5 35-1.5l4-13-66.5-37 53-25.5-22.5-21.5 15.5-29q-37-3-72.75-10t-64-19.5-47.75-30.25-23.5-41.25q-1-6-1-12 0-19 13.5-32 17.5-17.5 42-29 12.5-5 25.75-9.5t26.25-9q12.5-4 23.75-7t19.25-5q49-15.5 76.75-42.5t27.75-79.5q0-55.5-30.25-98t-94.75-75q-25.5-12.5-51.5-21t-50.75-14.75-46.75-9.25-40.5-5l17.5 32.5-47 13.5 20.5 30.5-17.5 18.5q17.5 4 38.5 8.75t42.5 10.75q19.5 6 39.5 14.75t36.25 21 27 27.25 10.75 32q0 21.5-21 35.5t-46.5 22q-26.5 9-52.75 15.25t-39.25 11.25q-46 18.5-72.5 50-22.5 27-22.5 71 0 7 0.5 14.5z" horiz-adv-x="466" />
<glyph unicode="&#x74;" d="M20.5 729l5 18 404.5 29-16.5-25.5 29-30-49.5-31.5 49.5-21.5-4-17.5-133.5-9.5-7-509.5-15.5-4.5-33.5 73-23.5-62.5-25 25.5-29.5-18.5-5 490.5-124-8 5 18.5-17.5 14 57.5 43z" horiz-adv-x="464" />
<glyph unicode="&#x75;" d="M34 388q0 57.5 0.5 104t3 90 6.5 89 11.5 100l33.5-13.5 40 30.5 38-23.5 14 5q-3-30.5-6.5-79.75t-7-103-5-104.75q-0.5-22-1-40.5 0-25 1.5-44.5 5-96.5 52-122.5 15.5-8.5 35.5-8.5 40 0 96.5 34.5 6 14.5 9.75 41.75t5.75 61.5 3 73.25 1 78.5q1 66.5 1.5 131.75t2.5 109.25l28 7 34.5-69.5 45 65.5 24 1q-1-42-2.25-115.75t-2.25-163.75-1-186.75 2-183.25l-25.5 8.5-34.5-30-38 25-30-14.5q-1 5-3.5 13.75t-9.5 27.25q-30.5-13.5-67.5-23.25t-72.5-13.25q-19-2-36.5-2-15 0-29 1.5-30 3-46.5 15.5-25.5 18.5-40 51.25t-21.5 67.5-8.5 65-1.5 44.75z" horiz-adv-x="527" />
<glyph unicode="&#x76;" d="M16.5 784l16.5 7 46-83.5 18.5 73.5 29.5-20.5 22.5 28.5 95-500.5 18.5 5 124 492.5 17.5-8 30.5 17.5 27-74 57 62.5 6.5-5-184.5-653.5-22.5 2-28.5 40-47.5-44-17 3-43 58.5-24-50-15 6z" horiz-adv-x="527" />
<glyph unicode="&#x77;" d="M11.5 776l19 3 40-45 31 41 27.5-3 50-322h18.5l89 334 11.5 2 43-70.5 46 65.5 5-4 71-325.5 23.5 1 64.5 323.5 14 2 15.5-66.5 63.5 79.5 18.5-2-117.5-644-15.5 8.5-42-25-35 30-35.5-16.5-85 330h-18.5l-98.5-342.5-34-11-39.5 66.5-33-62.5-13.5 4z" horiz-adv-x="660" />
<glyph unicode="&#x78;" d="M24.5 773l14.5 9 53-40 2 45 11.5-5 26.5 11.5 94.5-215.5 98 225.5 25.5-6 7.5-71 51 50.5 14.5-5-119-303.5 127-313-34.5 6-4.5-23.5-56 29.5-18.5-24.5-94.5 205-92-225.5h-29.5l-9.5 47-52-29.5-9.5 5 117 295z" horiz-adv-x="436" />
<glyph unicode="&#x79;" d="M16.5 767.5l18.5 18.5 55-42 3 60.5 39 5 111.5-258 16.5-2 62.5 252 15.5 3 20.5-58.5 42 49.5 13-17.5 38 13-168-637.5-18.5-10.5-21.5 46-47-46-22.5 15.5-12-4 62.5 280.5-54.5 2z" horiz-adv-x="470" />
<glyph unicode="&#x7a;" d="M37 708.5l41 37.5-40 27 5 14 343 16.5 9.5-24.5-29-28.5 31-29-191.5-464 182-5 1-20.5-50-44 44-14-18.5-16.5 5-14.5-278.5-12 1 38.5-50 10.5 192.5 503.5-190.5-4z" horiz-adv-x="420" />
<glyph unicode="&#x7b;" d="M42 519q12.5 11.5 29.75 28.25t33.75 35.75 29.25 38.25 15.75 34.75q4 17.5 2 33.75t-5 30.75-7.25 28.25-8.25 28.25q-7 26.5-6.5 50.5t24 53q11.5 13.5 30.25 26.75t40.75 24 44.5 19.25 41 14l3-1-18-36h42l-4.5-16.5 9.5-9q-23.5-13.5-44.5-34t-26-51q0-2-0.75-5.25t0.75-8.25q1-9 3-21.5 1-11.5 4.5-30.75t6-40.75 3-40.5-2.5-28.5q-10-27.5-22.75-46.5t-25.25-33q-6-7-11.25-11.75t-10.25-9.75q-6-5-11.25-11.75t-15.25-21.25q26.5-16.5 41.75-32.75t23-32.75 9.25-33.75 0.5-34.75q-1-14.5-2.5-28.25t-2.5-28.25 0-29.25 5-28.75q8-27.5 32.25-47.75t70.25-32.25l-1-11.5-26.5 1v-39l-33-3-1-27.5q-43 2-72.25 17t-49.75 38.5q-29.5 35-40.25 85.5t-5.75 106q3 29.5-6.75 56.75t-24.5 49.75-31.5 40-28.25 26.5z" horiz-adv-x="390" />
<glyph unicode="&#x7c;" d="M61.5 641.5l32.5-15 45.5 42 27.5-28 36 19.5 3-492.5-25 10.5-32.5-15.5-19.5 43-53-55.5-11.5 7.5zM61.5 819.5q-4 22 6 38.5 30.5 48 64.5 68t67.5-4.5q8-6 11.75-22.5t2.25-35.5-7.75-36.5-18.25-26.5q-14.5-10-33-15.25t-35.75-6.75-30 0-15.25 4.5q-8 14.5-12 36.5z" horiz-adv-x="267" />
<glyph unicode="&#x7d;" d="M35 894.5l1 11.5 26.5-1v39l32.5 3 1.5 27.5q43-2 72-16.75t49.5-38.75q29.5-35 40.5-85.5t5.5-105.5q-3-29.5 6.75-56.75t24.75-50 31.75-40 28.25-26.75q-12.5-11.5-30-28.25t-33.75-35.5-29-38.25-15.75-35q-5-17.5-3-33.75t6-30.75q2-14.5 6.5-28.25t8.5-28.25q7-26.5 6.75-50.5t-23.75-53q-11.5-14.5-30.5-27t-41-23.25-44.5-19.5-41-13.75l-3 1 18.5 35.5h-42l4 16.5-9 9q23.5 13.5 44.5 34t26 51q0 2 0.5 5.25t-0.5 8.25q-2 9-3 21.5-2 11.5-5 30.75t-5.75 40.75-3.75 40.5 3 28.5q9 27.5 22.5 46.5t26 33q6 7 11 12.25t10.5 9.25q5 6 10.5 12.25t16 20.75q-26.5 16.5-42 32.75t-23 32.75-9.25 33.75-0.75 34.75q1 14.5 2.75 28.25t2.75 28.25 0 29.25-5.5 29.25q-8 27.5-32 47.25t-70 32.25z" horiz-adv-x="390" />
<glyph unicode="&#x7e;" d="M57.5 753.5q6 11.5 11.75 21.5t10.75 19.5q20.5 36 44.5 61.5t66 33.5q44 8 70.5 0.5t49.5-23q12.5-8 24-17.25t25-18.75q14.5-9 29.25-18.25t34.25-15.25q18.5-6 33.75-2t29 13.75 25 23 20.75 26.75q6 8 10.75 16.75t9.75 15.75q4 0 7.5-0.5t8-0.5l-3.5-36h32l-2-33.5 18.5-10.5q-8-16.5-17.5-33.75t-19-33-19.25-29.25-18.25-21.5q-33-33-75.25-40.5t-82.25 5.5q-7 2-15.75 7.25t-20.25 12.25-23 16.25-23 17.75q-23.5 17.5-49 32.25t-50.5 17.75q-10 0-26-15.75t-30-34.25q-7-8-13.25-16.75t-11.25-16.25l-6.5-8-11 2 13 36h-42l8.5 25.5q-5 5-11.25 9.75t-12.25 9.75z" horiz-adv-x="655" />
<glyph unicode="&#xa1;" d="M7 160.5l162 528.5 19.5 10 15.5-49 45 25.5-35-526.5-17.5-7-24.5 89-77-106.5-26.5 68.5zM162 859q-4 21.5 1.5 42.5t17.5 32q11.5 10 33.5 12.25t45-1.5 42-12.75 24-21.5q7-18.5 2-39.5t-15-30q-14.5-12.5-39-15.5t-48.75 0.5-42.5 12.25-20.25 21.25z" horiz-adv-x="344" />
<glyph unicode="&#xa2;" d="M23.5 534q0 23.5 6.25 63.5t24 82 50 78 85.75 52l6 100.5 47-24.5 48.5 45-15.5-106.5q28.5 0 53.25-3t52.25-8.5l2.5-5q1.5-3 3.5-5l-71.5-20.5 50-23.5-20.5-18.5 8.5-20.5q-13.5-1-30-2t-32.75-3.5-31.25-5.75-26-8.25q-20.5-9-33.75-31t-21.5-48.25-11.75-51.75-3.5-42q0-14.5 2-34.25t8-40.75 16.75-40 29.25-31.5q9-6 26.5-10t39-6.25 44-3.25 43-1q-1-1-7-9l20.5-19.5-53-23.5 58-17.5q-1-2-2-4.5t-2-4.5q-26.5-5-55.25-9.25t-59.25-6.25l-11.5-103.5-23.5 18.5-49-19.5-7.5 108.5q-11.5 2-19.5 3.5t-15 3.5q-39 13.5-63 42.75t-37.5 65.5-17.5 75.5-4 73.25z" horiz-adv-x="434" />
<glyph unicode="&#xa3;" d="M27.5 203.5l112 223-68-7 14.5 41-26.5 17.5 53 49-49 15.5 12.5 40 55-1q-34 55.5-39 109.5t10.5 100.25 47.75 79.5 71.75 47.25q21.5 7 48.25 12.75t56 6.25 61-4.5 62.25-18.5l3-19.5-63.5-34.5 55.5-53.5-35-17.5 19.5-33.5q-21.5 6-45 9.5t-46.5 3-45-7.5-39.5-23.5q-11.5-10-15-28t0.5-39.5 15.25-45 29.75-46.5l110.5-1 7.5-32.5-43-33 55-25.5-20.5-28.5-86-10.5-92-179 224.5 3-16.5-32.5 17.5-16.5-58.5-26.5 68.5-31-7-14.5-336-22.5 5 44-50-9 5 47z" horiz-adv-x="487" />
<glyph unicode="&#xa5;" d="M17.5 896.5l32.5 5.5 8.5 16 57-49v79l25 1 140-314.5 131 325.5 23.5 4.5-5-84 73 63.5 11-13.5h24.5l-136-320.5 60.5 2 2-18.5-46-43 45-39-9.5-15-103.5-8.5 1.5-119.5 114.5 5 21.5-31-59.5-28.5 20.5-52-96-8.5v-106.5l-28 6.5-20.5-18.5-42 60.5-36.5-72-17.5 2-3 115-125-12.5 6 28.5-20.5 20.5 64.5 29-41 51 113 5-3.5 107.5-2 7.5-99-7.5 19.5 29-47.5 30.5 24.5 25.5-5 48.5 52.5 1z" horiz-adv-x="540" />
<glyph unicode="&#xa7;" d="M31.5 508.5q6 64.5 63.5 121-33 18.5-49.75 41.5t-13.75 55.5q4 48 36.5 87.5t81.5 68.75 110 47.25 121.5 24q14.5 2 38 1.5t40-1.5l5-11-76-35 59.5-23.5-24.5-19.5 16.5-26.5q-41-3-78.5-9.75t-67.25-18-49-27.75-24.75-38q-3-14.5 0.75-25.5t11.75-19.75 18.75-15 22.25-10.25q23.5-9 49.5-15.75t52-13.75q27.5-7 51-16t41-21.25 27.25-29 9.75-40.25q0-68.5-85-126 41-16.5 63-37.5t22-56q0-50-39-89.5t-112.5-69q-57.5-23.5-115-33.75t-97-13.25l19 29.5-52 12.5 22.5 28.5-19.5 16.5q20.5 3 43.5 7t46.5 10.5q21.5 5 42 13.75t37 20 26.25 25 9.75 30.25q0 20.5-21.5 33.25t-48 21.75-53.75 15.25-42.75 11.75q-26.5 9-49 19.75t-38.5 24.5-24.25 32.25-6.25 43zM220 526q-6-24.5 7.75-40t34.25-25.5q23.5 13.5 38.5 29.25t15 36.25q0 17.5-16.5 29.25t-39 20.75q-34-22.5-40-50z" horiz-adv-x="537" />
<glyph unicode="&#xa8;" d="M51.5 783q-0.5 19.5 4 51 3 21.5 15.75 38t31.25 25.25 39 8.75 38.5-12.5q6-4 9.25-20.25t1.75-36.75-7.75-40.5-18.25-30.5q-11.5-9-25.75-15.25t-28-9.25-25-2-17.75 7q-16.5 17.5-17 37zM257 788q-1 19.5 4 50.5 3 21.5 16 37.75t30.75 25.5 38.75 9.25 39.5-12q6-4 8.75-20.5t1.75-37.5-7.25-40.5-18.75-29.5q-11.5-9-25.5-15.25t-28-9.5-25.25-2.25-17.25 7.5q-16.5 17-17.5 36.5z" horiz-adv-x="455" />
<glyph unicode="&#xa9;" d="M35.5 498.25q-0.5 51.25 2.5 102t11.75 97.75 22.75 84q16.5 42 48.75 68.75t70.75 40 80.5 13.75 79.25-9.25 66.5-29.25 41.75-46q7-16.5 16.75-47.75t17.5-73.75 12.75-94.75 5-111.75q0-18.5-3-48t-8.75-63.25-14.5-69.25-20-66.75-26-54.25-32.25-33q-21.5-12.5-57.75-20.25t-75.25-10.25-74.75 1.25-56.25 14.75q-33 17.5-50.75 43.5t-31.25 72.5q-6 22.5-12.25 59.75t-9.75 82.75-4 96.75zM105.5 569q-2-60.5 1.5-119.75t12.75-112 20.75-88.75q18.5-21.5 54.75-33.25t76.25-10.75 75.75 15.75 53.25 44.75q15.5 27.5 26 73t14.75 98.75 1.75 110.75-12.75 108.75-27.75 92.5-44 62.75q-15.5 12.5-37.5 17t-44.5 3.5-42.5-6.5-31-13q-35-21.5-56.5-58.25t-28.5-73.75q-10.5-51-12.5-111.5zM174.5 507q1.5 48.5 8.25 91.5t18.5 76.5 28.25 45.5q26.5 20.5 57.75 17.5t66.25-20.5l1-16.5-21.5-20.5q2-4 3.5-8t3.5-8q-20.5 4-42-3.25t-29.5-26.75q-10-21.5-15.75-53.25t-8-65.5 0-65.5 8.25-53.25q14.5-54.5 56-43 11.5 3 21.25 8.75t20.75 9.75l2.5-3-39-47.5q8-4 15.25-8t13.25-7q-13.5-9-29.75-15.25t-33.25-7.75-32.25 1-27.75 10.5q-17.5 11.5-27.5 44.25t-14.75 75.75-3.25 91.5z" horiz-adv-x="553" />
<glyph unicode="&#xaa;" d="M43 152.5l53.5 39.5-19.5 51.5 402 19.5 11.5-38-42-40 16.5-36-406.5-33.5zM46 338.5l119 593 36.5-11 34 30.5 51-65.5 29 58.5 31.5-20.5 30 18.5 108.5-606.5-20.5 14.5-34-20.5-26.5 34.5-24.5-26.5-34 130-172-14-33.5-131.5-9.5-3-28.5 38-38-30.5zM196.5 563l132 12-46 215-39-3z" horiz-adv-x="509" />
<glyph unicode="&#xab;" d="M26.5 510.5l177.5 306.5 26.5 9 39-22.5 48 22.5 22.5-15.5 7 1-172-279.5 193.5-297-5-3-50 16.5-45-35-27 1zM282.5 510.5l177.5 306.5 26.5 9 39-22.5 48 22.5 22.5-15.5 7 1-172-279.5 193.5-297-5-3-50 16.5-45-35-27 1z" horiz-adv-x="641" />
<glyph unicode="&#xac;" d="M27.5 479l71 53-50.5 30 20.5 28.5-3 19.5 595-2-8-54.5 56-9-17.5-230.5-14 10.5-35-29-22.5 57.5-36-42v169l-550.5-17.5z" horiz-adv-x="742" />
<glyph unicode="&#xad;" d="M46 519l24.5 19.5-17.5 39.5 211 16.5-33.5-20.5 41-58-57.5-37 22.5-34-181-34.5-7.5 15 48.5 39z" horiz-adv-x="310" />
<glyph unicode="&#xae;" d="M35.5 498.25q-0.5 51.25 2.5 102t11.75 97.75 22.75 84q16.5 42 48.75 68.75t70.75 40 80.5 13.75 79.25-9.25 66.5-29.25 41.75-46q7-16.5 16.75-47.75t17.5-73.75 12.75-94.75 5-111.75q0-27.5-6.25-77.75t-19.5-102.25-32.75-96.25-46-58.25q-21.5-12.5-57.75-20.25t-75.25-10.25-74.75 1.25-56.25 14.75q-33 17.5-50.75 43.5t-31.25 72.5q-6 22.5-12.25 59.75t-9.75 82.75-4 96.75zM105.5 569q-2-60.5 1.5-119.75t12.75-112 20.75-88.75q18.5-22.5 53.25-32.75t73.5-8.75 76.25 15.25 61 40.75q14.5 36 23.5 84t12.75 101.75 1.25 109-12.25 104.5-27.25 88.5-44 60.75q-15.5 12.5-37.5 17t-44.5 3.5-42.5-6.5-31-13q-35-21.5-56.5-58.25t-28.5-73.75q-10.5-51-12.5-111.5zM183.5 684.25q0 23.25 1 24.25 15.5 7 42.5 11.5t53.5 4.5 49.25-6.5 28.75-22q17.5-41 21-67.5t-2.5-47q-4-13.5-10.75-30.5t-15.25-33q-8-16.5-13-27.75t-7-14.25q9-24.5 19-50.5 8-21.5 18-47t18-46l-11-16.5-31 11.5-14.5-17.5-46 133-42-11v-144.5l-22.5 27.5q-5-2-11.75-4.5t-13.75-4.5q-1 23.5-2 62.25t-2.5 83.5-3 90.25-2 82.25-0.5 60zM239.5 547.5q0-6 1-13.75t5.25-14 11.75-9.25 22 0q11.5 3 19 19t12.25 36 6.75 39 1 28-7.75 19.75-16.5 16-21.5 1.75-22.75-23q-4-6-6.25-20.5t-3.25-30q-1-14.5-1-27.5v-21.5z" horiz-adv-x="553" />
<glyph unicode="&#xb0;" d="M34.5 711.75q0.5 35.25 7 69.75t20.5 65.75 38.5 56.75q17.5 18.5 47.5 26t61.75 4.5 58.5-16.25 37.75-35.75q6-12.5 16-41.75t13-69.5-6.25-89.5-41.25-101.25q-24.5-41-65.5-56.5t-80.75-6.75-70 40.5-34.25 85.25q-3 33.5-2.5 68.75zM126 711.5q-1-21.5 1-43t7-37q9-31.5 27.5-38.25t40 17.75q13.5 15.5 20.75 42t9.25 56.75 0 58-7 43.75q-5 18.5-20.5 27.75t-36 0.25q-11.5-5-19-18.5t-12.75-31.25-7.75-38.25-2.5-40z" horiz-adv-x="361" />
<glyph unicode="&#xb1;" d="M43 180l50 47-18 60.5 380.5 22.5 10.5-45-40-47 15.5-42-384-40zM62.5 579.5l41 34.5-18.5 68.5 115.5 10.5 1 145.5 55.5 3 33 36 31.5-2.5v-177l126 9.5 2-17.5-36-49.5 35-35.5-3-19.5-126-29-9-163.5h-55.5l-44 4-7 145.5-135.5-8.5z" horiz-adv-x="508" />
<glyph unicode="&#xb2;" d="M41 156.5l25.5 28.5q-8 14.5-15.25 25.75t-9.25 16.25q10 16.5 29.5 49.25t43 75.25 49.25 91.5 49.25 98.5q19.5 41 37 79.75t28.25 71.5 13.25 59-7 41.75q-7 11.5-29 15.25t-51.25 3.25-62.5-5-61.75-9.5l28.5 43-42 16.5 27.5 35.5q-4 3-8 7.5-4 3-8.25 6.5t-9.25 7.5q31.5 12.5 72 23.25t83 16.25 83 4 73.5-14.5q58.5-23.5 72.75-74.75t-9.25-122.25q-20.5-61.5-44-117.25t-50.5-112.75q-26.5-57.5-58.25-117.5t-70.75-132.5q30.5 0 63.5-0.5t63.25-1 54.75-1.5 40-1l10-28-70.5-38.5 65.5-24-12.5-30.5h-377.5z" horiz-adv-x="487" />
<glyph unicode="&#xb3;" d="M44 194l6 20.5q33 5 70.25 15t73.25 24.25 66.25 33.25 47.5 42.5 18.75 50.5-20 59q-7 10-23.5 15.75t-36.25 8.75-41.75 3.5-39.5 0.5l9 30-21.5 17.5 39 30.5-49 31.5q30.5 16.5 62.75 40t54.75 51.25 27.75 59-18.25 62.75q-20.5 26.5-50.75 32.25t-59.25 3.75q-20.5-2-44-5t-48-7l30 39.5-42 15.5 42 28.5-30 34q38 11.5 82.5 17t87 6 77.75-3 53.75-11q44-17.5 65-57.75t15.5-93.5-37.75-114.75-94.75-121q69.5-23.5 106.5-54.25t46-52.25q14.5-36 9.75-74.25t-24.25-74-50-67.5-67.5-54.25q-53-33-119.25-49.75t-124.75-22.25q1 3 3.5 7.5l8 16-26.5 10.5 53 44z" horiz-adv-x="515" />
<glyph unicode="&#xb4;" d="M31.5 774l115 176 23.5 2-7-41 61.5 5-6.5-24.5 21.5-9-136-121-24.5 24.5-36-22.5z" horiz-adv-x="278" />
<glyph unicode="&#xb5;" d="M34 542.5q0 56.5 0.5 103t3 90 6.5 89 11.5 100l33.5-13.5 40 31 38-24 14 5.5q-3-30.5-6.5-79.75t-7-102.5-5-104.5 0.5-85.25q5-96.5 52-122t132 27q6 14.5 9.75 41t5.75 60.75 3 73.25 1 79q1 66.5 1.5 131t2.5 108.5l28 7 34.5-69.5 45 65.5 24 1q-1-42-2.25-115.75t-2.25-163.25-1-185.75 2-182.25l-25.5 8-34.5-29.5-38 24.5-30-14.5q-1 5-3.5 13.75t-9.5 27.25q-45-18.5-101-29.75t-104-7.25l-4-173-8-3-37 62.5-23.5-54-21.5 9-23.5-2q1 57.5 1 108t-0.5 99l-1 96q-0.5 48.5-0.5 100.5z" horiz-adv-x="527" />
<glyph unicode="&#xb6;" d="M27.75 733.25q5.25 48.75 25.5 93.25t58.25 75.5q17.5 13.5 52.25 23t80 14.25 96.75 4.75 102.75-4.25 98.5-13.5 81.75-22.25l6.5-30-87.5-9 60.5-55.5-27.5-15 25.5-39q1-44 1.5-97.75t0-111.75-1.5-115.75-2.5-110-2.5-94.75-1-68l-16.5-13.5-42 87-52-107.5-22.5 11.5v49.5q0 29-1 61.25t-2.75 65.25-3.75 60.5q-13.5 3-26.25 6.5t-29.75 9v-258.5l-27-8-32.5 82-30-81-27.5 38-33.5-19.5-4.5 284.5q-61.5 23.5-109.5 59t-71.5 72q-21.5 35-30.75 82t-4 95.75zM164 710q-2-24 5-46.25t20.5-42 28.5-34.25q2-2 7.25-4t16.25-7.5l-3 212q-20.5-6-34.25-13.75t-21.75-18.75q-16.5-21.5-18.5-45.5zM397.5 531q19.5-4 34.25-6.5t29.25-4.5q-1 67.5-0.5 129.5t-1.5 120q-12.5 5-26 7.5-6 1-14.25 2.5t-21.25 3.5v-252z" horiz-adv-x="653" />
<glyph unicode="&#xb7;" d="M43 494.5q-1 21.5 4 56 3 23.5 17.5 42t35 28.25 43.5 9.75 43.5-13.5q6-4 9.5-22.5t2-41.5-8.5-45-20.5-33q-12.5-10-28.25-17.5t-31.25-10.5-28.25-1.5-18.75 8q-18.5 19.5-19.5 41z" horiz-adv-x="236" />
<glyph unicode="&#xb8;" d="M72.5 107l11.5 25q24.5-5 48.5-8.25t40.5 0.75q25.5 6 40 28.25t10 53.75l113 29.5q15.5-87-1.5-137.5t-70.5-72q-26.5-11.5-48.5-16.5t-43.5-6-43.5 3-46.5 12l-4 20.5 45 22.5z" horiz-adv-x="384" />
<glyph unicode="&#xb9;" d="M40 786l206 176 29.5-57 50 30.5-6-674.5 114.5 1 6.5-31-51.5-35.5 49.5-32-27-27.5-319.5-5 38 31.5-56.5 36 32 19.5-18.5 37.5 116 13.5-18.5 478-92.5-45-17 11.5 35.5 69.5z" horiz-adv-x="467" />
<glyph unicode="&#xba;" d="M41.5 548.25q-4.5 54.75 0.5 108.75 9 99.5 28 155.25t56 85.25q13.5 10 33.75 21.5t46 19.75 55 11.75 58.75-0.5l-2-56.5 49 30 21.5-31 34 13.5q37-37 57.25-105.5t20.25-168q0-33-4-72.25t-14.25-76.75-26.5-68.75-42.25-48.25q-36-24.5-71.75-37t-70-16-64.5 0.5-54.75 12.5q-31.5 10-54.75 42.75t-37 78.5-18.25 100.5zM43 152.5l53.5 39.5-19.5 51.5 402 19.5 11.5-38-42-40 16.5-36-406.5-33.5zM162.25 566q2.75-34 10.25-63.5t21-50q10-15.5 29.5-23.25t41-7.75 41.5 7.75 30.5 23.25q10 15.5 19.25 44.5t15 64.75 6.75 74.75-5.75 73.75-21.5 63-40.75 42.75q-17.5 9-40.25 8.5t-40.25-15q-19.5-17.5-33.5-44.5t-22-59.75-10.75-69 0-70.25z" horiz-adv-x="526" />
<glyph unicode="&#xbb;" d="M29.5 821l4.5 3 50-16.5 46 35 25.5-2 215-296-177-305-26.5-10.5-39 23.5-47-22.5-23.5 14.5-7.5-1 172 280.5zM285.5 821l4.5 3 50-16.5 46 35 25.5-2 215-296-177-305-26.5-10.5-39 23.5-47-22.5-23.5 14.5-7.5-1 172 280.5z" horiz-adv-x="638" />
<glyph unicode="&#xbc;" d="M851.5 417.5l34 512 6 2 18.5-65.5 42 43 11.5-35 29.5 10.5-17.5-359.5 178.5 17.5v394l5 4 40-70.5 53 66.5 20.5-2 3-398 71 9 1-22.5-71-51 59.5-23-23.5-33.5 15.5-20.5-55.5-8 3-250-23.5-5-34.5 42-18.5-64.5-33 6-12 267-254-15v53zM477 112.5l198 830.5 31.5 8 15.5-69.5 58.5 105.5 36.5-16.5-222-851-39 28.5-50-44zM40 786l206 176 29.5-57 50 30.5-6-674.5 114.5 1 6.5-31-51.5-35.5 49.5-32-27-27.5-319.5-5 38 31.5-56.5 36 32 19.5-18.5 37.5 116 13.5-18.5 478-92.5-45-17 11.5 35.5 69.5z" horiz-adv-x="1375" />
<glyph unicode="&#xbd;" d="M861 156.5l25.5 28.5q-8 14.5-15.25 25.75t-9.25 16.25q10 16.5 29.5 49.25t43 75.25 49.25 91.5 49.25 98.5q19.5 41 37 79.75t28.25 71.5 13.25 59-7 41.75q-7 11.5-29 15.25t-51.25 3.25-62.5-5-61.75-9.5l28.5 43-42 16.5 27.5 35.5q-4 3-8 7.5-4 3-8.25 6.5t-9.25 7.5q31.5 12.5 72 23.25t83 16.25 83 4 73.5-14.5q58.5-23.5 72.75-74.75t-9.25-122.25q-20.5-61.5-44-117.25t-50.5-112.75q-26.5-57.5-58.25-117.5t-70.75-132.5q30.5 0 63.5-0.5t63.25-1 54.75-1.5 40-1l10-28-70.5-38.5 65.5-24-12.5-30.5h-377.5zM477 112.5l198 830.5 31.5 8 15.5-69.5 58.5 105.5 36.5-16.5-222-851-39 28.5-50-44zM40 786l206 176 29.5-57 50 30.5-6-674.5 114.5 1 6.5-31-51.5-35.5 49.5-32-27-27.5-319.5-5 38 31.5-56.5 36 32 19.5-18.5 37.5 116 13.5-18.5 478-92.5-45-17 11.5 35.5 69.5z" horiz-adv-x="1308" />
<glyph unicode="&#xbe;" d="M900 417.5l34 512 6 2 18.5-65.5 42 43 11.5-35 29.5 10.5-17.5-359.5 178.5 17.5v394l5 4 40-70.5 53 66.5 20.5-2 3-398 71 9 1-22.5-71-51 59.5-23-23.5-33.5 15.5-20.5-55.5-8 3-250-23.5-5-34.5 42-18.5-64.5-33 6-12 267-254-15v53zM525 112.5l198 830.5 31.5 8 15.5-69.5 58.5 105.5 36.5-16.5-222-851-39 28.5-50-44zM44 194l6 20.5q33 5 70.25 15t73.25 24.25 66.25 33.25 47.5 42.5 18.75 50.5-20 59q-7 10-23.5 15.75t-36.25 8.75-41.75 3.5-39.5 0.5l9 30-21.5 17.5 39 30.5-49 31.5q30.5 16.5 62.75 40t54.75 51.25 27.75 59-18.25 62.75q-20.5 26.5-50.75 32.25t-59.25 3.75q-20.5-2-44-5t-48-7l30 39.5-42 15.5 42 28.5-30 34q38 11.5 82.5 17t87 6 77.75-3 53.75-11q44-17.5 65-57.75t15.5-93.5-37.75-114.75-94.75-121q69.5-23.5 106.5-54.25t46-52.25q14.5-36 9.75-74.25t-24.25-74-50-67.5-67.5-54.25q-53-33-119.25-49.75t-124.75-22.25q1 3 3.5 7.5l8 16-26.5 10.5 53 44z" horiz-adv-x="1423" />
<glyph unicode="&#xbf;" d="M43 304q-9 44 1 88 7 33 29.75 59t55 48 72.5 39.75 85.25 35.25q6 17.5 10.25 34t7.25 31.5q3 14.5 4 26.75t3.5 20.75l15 13 43-39 16.5 52.5 13.5-2q2-12.5 5-33.5t6-45 5.75-49.5 2.75-48.5q-18.5-10-44.25-22.25t-52.25-26.75q-36-20.5-63.5-44t-34.5-47q-9-29.5-3-54.75t21.25-44.25 38.25-30.25 47.5-13.25q29.5-3 65.5-2.5t75 7.5l-40-41.5 48-25-24.5-21.5q2-3 5-7 2-3 5.25-6.5t6.25-8q-59.5-17.5-118.25-22.5t-121.25 3q-50 6-89 31.75t-63.75 62.75-33.75 81zM284 888q-0.5 13 5.75 26.75t24.75 25.75q11.5 7 30.25 11.25t37.25 5.75 33.75 0 19.25-4.5q10-7 14.25-17.75t0.25-23.5-16.25-26.75-34.75-27q-7-4-21.5-6.75t-30.25-3.75-29.25 0-17.5 4q-5 3-10.25 13.25t-5.75 23.25z" horiz-adv-x="512" />
<glyph unicode="&#xc0;" d="M10 129.5l162 722 20.5 10.5 40-41 66.5 52 67.5-74.5 43 65.5h6l174.5-718-18.5-8-52.5 62.5-18.5-53.5-37.5 21.5-20.5-18.5-39 107.5-238.5-2-30-121.5-26.5 13-17.5-14-19.5 52-49-62.5zM105.5 1019.5l27.5 19.5 67.5-27.5 17.5 67.5 18.5-2 111.5-155.5-13-7.5-37 15.5-32-35zM194.5 366.5l197.5 12-77.5 295-41 6z" horiz-adv-x="596" />
<glyph unicode="&#xc1;" d="M10 129.5l162 722 20.5 10.5 40-41 66.5 52 67.5-74.5 43 65.5h6l174.5-718-18.5-8-52.5 62.5-18.5-53.5-37.5 21.5-20.5-18.5-39 107.5-238.5-2-30-121.5-26.5 13-17.5-14-19.5 52-49-62.5zM194.5 366.5l197.5 12-77.5 295-41 6zM253 920.5l114.5 176 23.5 2-7-41 61.5 5-6-24.5 21.5-9-136.5-121-24.5 24.5-36-22.5z" horiz-adv-x="596" />
<glyph unicode="&#xc2;" d="M10 129.5l162 722 20.5 10.5 40-41 66.5 52 67.5-74.5 43 65.5h6l174.5-718-18.5-8-52.5 62.5-18.5-53.5-37.5 21.5-20.5-18.5-39 107.5-238.5-2-30-121.5-26.5 13-17.5-14-19.5 52-49-62.5zM83 916l126 166 51-9 25.5 26.5 44-12.5 35 8.5 137.5-166-6.5-6-25.5 12-15.5-36.5-28.5 13-33-9-112.5 106.5-91-106.5-25.5-9.5-27 29-43-11.5zM194.5 366.5l197.5 12-77.5 295-41 6z" horiz-adv-x="596" />
<glyph unicode="&#xc3;" d="M10 129.5l162 722 20.5 10.5 40-41 66.5 52 67.5-74.5 43 65.5h6l174.5-718-18.5-8-52.5 62.5-18.5-53.5-37.5 21.5-20.5-18.5-39 107.5-238.5-2-30-121.5-26.5 13-17.5-14-19.5 52-49-62.5zM69.5 978.5q5 8 9.25 15.75t9.25 15.25q17.5 27.5 36.5 46.5t52.5 26q36 6 57.5 0t39-17.5q10-6 19.25-13.25t20.75-14.25 23.5-13.75 27.5-11.75q14.5-5 27.25-2t23.5 10.75 20 18 16.25 20.25q5 6 9.25 12.75t7.25 11.75q3 0 6-0.5t7.5-0.5l-3.5-26.5h26l-2-25.5 15-8.5q-12.5-25.5-29.25-51.5t-30.25-37.5q-26.5-24.5-60.25-30.75t-66.25 4.25q-11.5 3-29 14.5-9 5-18.75 12t-19.25 13.5q-19.5 13.5-39.25 25t-40.25 14q-8 0-21-12.5t-24-26.5q-5-6-10.25-12.75t-10.25-11.75l-4.5-6.5-9 1 10 28h-33.5l7 19.5q-5 4-9.75 7t-9.75 8zM194.5 366.5l197.5 12-77.5 295-41 6z" horiz-adv-x="596" />
<glyph unicode="&#xc4;" d="M10 129.5l162 722 20.5 10.5 40-41 66.5 52 67.5-74.5 43 65.5h6l174.5-718-18.5-8-52.5 62.5-18.5-53.5-37.5 21.5-20.5-18.5-39 107.5-238.5-2-30-121.5-26.5 13-17.5-14-19.5 52-49-62.5zM128.5 946.5q-0.5 20 3.5 50.5 3 21.5 16.5 38t31.25 25.75 38.75 9.25 39.5-12.5q6-4 8.75-20.5t1.75-37.5-7.25-40.5-18.75-29.5q-11.5-9-25.5-15.25t-28-9.25-25.75-2-16.75 7q-17.5 16.5-18 36.5zM194.5 366.5l197.5 12-77.5 295-41 6zM334.5 951q-0.5 19.5 3.5 51 3 21.5 16.25 38t31.25 25.25 39 8.75 39.5-12.5q6-4 8.5-20.5t1.5-37.5-7.5-40.25-19-29.75q-11.5-9-25.25-15.25t-27.5-9.25-25.5-2-16.75 7q-17.5 17.5-18 37z" horiz-adv-x="596" />
<glyph unicode="&#xc5;" d="M10 129.5l155 687.5q-39 18.5-57 51.75t-14.25 67.5 29.25 63.5 73.5 39.25q49 11.5 102.5 14.5t101.5-12.5l3-50 59.5 12q13.5-17.5 19.5-41t4.5-47-10.75-44.5-25.75-31q-4-2-9.75-6.25t-15.75-9.25l165-678-18.5-8-54.5 84-16.5-75-37.5 21.5-20.5-18.5-39 107.5-244-2-29.5-122.5-21.5 14-17.5-14-19.5 52-49-62.5zM187.5 921.25q-3-16.25 17.5-30.75 13.5-9 34.75-11.75t44.25-0.5 44.5 7.25 34 11q13.5 6 19 19.5t-3.5 29q-5 8-16 13.25t-25.25 7.25-30 1.5-31.25-2.5q-16.5-2-33.25-5.75t-28.25-9.75q-23.5-11.5-26.5-27.75zM189.5 365.5l202.5 12-77.5 296-46 10z" horiz-adv-x="596" />
<glyph unicode="&#xc6;" d="M-12.5 127.5l332 803 22.5 11.5 30.5-45.5 78 57.5 14.5-24.5 282.5 16.5-14.5-21.5 26-17.5-47.5-24.5 48.5-41-8.5-20.5-178-19.5-5-193.5 189.5 7 6-18.5-41-45 33.5-20.5-4-21.5-182-25.5 5-225 182.5 8 4-14.5-61.5-25.5 68.5-24.5-25.5-38 13-21.5-233-20.5-14.5 36-34-21.5-10 34.5-42-22.5-13.5 122-243.5-2-58.5-137-18.5 16-20.5-16-7 58-63.5-69.5zM221 392l203 13-5 328-44 11z" horiz-adv-x="803" />
<glyph unicode="&#xc7;" d="M29 540q1.5 46.5 6 85.5 4 44 19.25 90t40.5 87 61.5 72.25 83.25 46.75q43 14.5 94.75 12.75t114.25-25.25l4-17.5-64.5-30.5 55.5-48.5-34-15 18.5-31q-43 10-90 10.25t-85-26.25q-20.5-15.5-36.5-46.75t-25.75-71.75-12.75-84.5 3.25-84 21.5-71.25 43.25-45.25q15.5-8 36.75-10.25t44.25-1.25 45.75 4.75 40.75 6.75q-2-5-2.5-11.25t-2.5-11.25q-2-6-3-12.5l48-20.5-77.5-47 67.5-14.5-8.5-16.5q-42-14.5-97-18 7-70.5-11-111.25t-64-58.75q-51-20.5-91-21.5t-89 14l-4 20.5 44 22.5-49.5 42 11.5 24.5q23.5-5 47.5-8t40.5 1q23.5 5 38 26t11 54q-52 10-91.5 31t-60 55q-18.5 30.5-27.5 72.5t-12.25 88.25-1.75 92.75z" horiz-adv-x="495" />
<glyph unicode="&#xc8;" d="M26.5 810.5l23.5 15.5-14 20.5 352 18.5-15.5-19.5 27-15.5-49.5-21.5 50.5-36.5-9.5-18.5-180-18.5-5-174 192.5 7 5-17.5-41-40 35-18.5-5.5-19-184-24 5-202.5 185.5 8 4-13-62.5-22.5 69.5-22.5-26.5-34 13.5-19.5-232.5-17.5 8 31-68.5-2 3 55-48-8 2 519h-26.5l-6.5 18.5 72 42zM63.5 1019.5l27.5 19.5 67.5-27.5 17.5 67.5 18.5-2 111.5-155.5-13-7.5-37 15.5-31.5-35z" horiz-adv-x="458" />
<glyph unicode="&#xc9;" d="M26.5 810.5l23.5 15.5-14 20.5 352 18.5-15.5-19.5 27-15.5-49.5-21.5 50.5-36.5-9.5-18.5-180-18.5-5-174 192.5 7 5-17.5-41-40 35-18.5-5.5-19-184-24 5-202.5 185.5 8 4-13-62.5-22.5 69.5-22.5-26.5-34 13.5-19.5-232.5-17.5 8 31-68.5-2 3 55-48-8 2 519h-26.5l-6.5 18.5 72 42zM162 911l114.5 176 23.5 2-7-40.5 61.5 5-6.5-24.5 21.5-9.5-136-120.5-24.5 24.5-36-22.5z" horiz-adv-x="458" />
<glyph unicode="&#xca;" d="M26.5 810.5l23.5 15.5-14 20.5 352 18.5-15.5-19.5 27-15.5-49.5-21.5 50.5-36.5-9.5-18.5-180-18.5-5-174 192.5 7 5-17.5-41-40 35-18.5-5.5-19-184-24 5-202.5 185.5 8 4-13-62.5-22.5 69.5-22.5-26.5-34 13.5-19.5-232.5-17.5 8 31-68.5-2 3 55-48-8 2 519h-26.5l-6.5 18.5 72 42zM58.5 919l108.5 152 44-8.5 21.5 24.5 38-11 29.5 7 118-151.5-5.5-6-21.5 11-13-33.5-24.5 12-29-8-96 97-78-97-22.5-8-22.5 26.5-37-11.5z" horiz-adv-x="458" />
<glyph unicode="&#xcb;" d="M26.5 810.5l23.5 15.5-14 20.5 352 18.5-15.5-19.5 27-15.5-49.5-21.5 50.5-36.5-9.5-18.5-180-18.5-5-174 192.5 7 5-17.5-41-40 35-18.5-5.5-19-184-24 5-202.5 185.5 8 4-13-62.5-22.5 69.5-22.5-26.5-34 13.5-19.5-232.5-17.5 8 31-68.5-2 3 55-48-8 2 519h-26.5l-6.5 18.5 72 42zM62 946.5q-0.5 20 3.5 50.5 3 21.5 16.25 38t31.25 25.75 39 9.25 39.5-12.5q6-4 8.75-20.5t1.5-37.5-7.25-40.5-18.5-29.5q-11.5-9-25.75-15.25t-28-9.25-25.5-2-16.75 7q-17.5 16.5-18 36.5zM268 951q-0.5 19.5 3.5 51 3 21.5 16.25 38t31.25 25.25 39 8.75 39.5-12.5q6-4 8.5-20.5t1.5-37.5-7.75-40.25-18.75-29.75q-11.5-9-25.25-15.25t-27.5-9.25-25.5-2-17.25 7q-17 17.5-17.5 37z" horiz-adv-x="458" />
<glyph unicode="&#xcc;" d="M-19.5 1022.5l27.5 19.5 68-27.5 17 67.5 18.5-2 111.5-155.5-13-7.5-37 15.5-31.5-35zM49 129.5l2 708 28-2 31.5 20.5 40-94.5 45 105.5 22.5-3-11-724-35 17.5-29.5-34-31 73-33.5-74z" horiz-adv-x="296" />
<glyph unicode="&#xcd;" d="M49 129.5l2 708 28-2 31.5 20.5 40-94.5 45 105.5 22.5-3-11-724-35 17.5-29.5-34-31 73-33.5-74zM95 920.5l115 176 23.5 2-7-41 61 5-6-24.5 21.5-9-136-121-24.5 24.5-36-22.5z" horiz-adv-x="296" />
<glyph unicode="&#xce;" d="M-2 917l96 155 39-9.5 20.5 25.5 33-12 26.5 8 105.5-154.5-5-6-19.5 12-11.5-34.5-22.5 12-24.5-8-86 99-69.5-99-19.5-9.5-20.5 28-33-11.5zM49 129.5l2 708 28-2 31.5 20.5 40-94.5 45 105.5 22.5-3-11-724-35 17.5-29.5-34-31 73-33.5-74z" horiz-adv-x="296" />
<glyph unicode="&#xcf;" d="M13 947.5q-0.5 19 3.5 50.5 2 20.5 12.75 37t25.5 25.75 31.75 9.25 32.5-12.5q4-4 6.5-20.5t1.5-37.5-6.25-40.5-15.25-29.5q-9-9-20.5-15.25t-22.75-8.75-21-1.5-13.75 7q-14 17.5-14.5 36.5zM49 129.5l2 708 28-2 31.5 20.5 40-94.5 45 105.5 22.5-3-11-724-35 17.5-29.5-34-31 73-33.5-74zM180.5 952q-0.5 19.5 4 50 2 21.5 12.75 38t25.5 25.25 31.75 8.75 32-12.5q4-4 6.75-20.5t1.75-36.75-6.25-39.75-15.25-30q-9-9-20.5-15.25t-22.75-9.25-21-2-13.75 7q-14.5 17.5-15 37z" horiz-adv-x="296" />
<glyph unicode="&#xd1;" d="M46 146l16.5 710 31.5 6 64.5-66.5 30 70.5 12-5 190.5-356.5 28 9 2 331 20.5-13.5 21.5 25 34.5-46.5 40 46.5-9-710-8.5-3-39.5 69.5-26-72.5-24.5 14.5-19.5-10.5-199.5 378-22.5-2-13.5-381-14-5-37 56-37-48-15.5 9zM69.5 978.5q5 8 9.25 15.75t9.25 15.25q17.5 27.5 36.5 46.5t52.5 26q36 6 57.5 0t39-17.5q10-6 19.25-13.25t20.75-14.25 23.5-13.75 27.5-11.75q14.5-5 27.25-2t23.5 10.75 20 18 16.25 20.25q5 6 9.25 12.75t7.25 11.75q3 0 6-0.5t7.5-0.5l-3.5-26.5h26l-2-25.5 15-8.5q-12.5-25.5-29.25-51.5t-30.25-37.5q-26.5-24.5-60.25-30.75t-66.25 4.25q-11.5 3-29 14.5-9 5-18.75 12t-19.25 13.5q-19.5 13.5-39.25 25t-40.25 14q-8 0-21-12.5t-24-26.5q-5-6-10.25-12.75t-10.25-11.75l-4.5-6.5-9 1 10 28h-33.5l7 19.5q-5 4-9.75 7t-9.75 8z" horiz-adv-x="579" />
<glyph unicode="&#xd2;" d="M29.5 497q1 43.5 5.25 79.75t10.25 58.75q14.5 58.5 38.5 99.5t55.75 67 71.25 39.25 84.5 17.75q9 1 22.5 0.5t24.5-1.5l11.5-65.5 61 22.5 15.5-63.5 64.5 14q20.5-23.5 34.25-49t18.25-57.5q9-70.5 10.5-142.25t-7.75-135.25-31.25-115.25-59.5-83.25q-39-33-90.25-45.75t-101-11.25-91.75 14-61.5 30.5q-26.5 24.5-43.25 62.5t-26.5 82-13 91.25-2.25 90.75zM105.5 1019.5l27.5 19.5 67.5-27.5 17.5 67.5 18.5-2 111.5-155.5-13-7.5-37 15.5-32-35zM173 488.5q-1-38.5 3-75.25t13.75-70.5 27.25-58.25q8-11.5 28-19.25t43.25-8.25 45.25 8.25 35 30.25q26.5 45 36.25 97.75t8.25 103.5-11.25 93.25-21.75 68q-15.5 31.5-40 42.5t-50.75 7.75-49.25-16.5-33-30.75q-9-14.5-16.25-41t-12-59.75-5.75-71.75z" />
<glyph unicode="&#xd3;" d="M29.5 497q1 43.5 5.25 79.75t10.25 58.75q14.5 58.5 38.5 99.5t55.75 67 71.25 39.25 84.5 17.75q9 1 22.5 0.5t24.5-1.5l11.5-65.5 61 22.5 15.5-63.5 64.5 14q20.5-23.5 34.25-49t18.25-57.5q9-70.5 10.5-142.25t-7.75-135.25-31.25-115.25-59.5-83.25q-39-33-90.25-45.75t-101-11.25-91.75 14-61.5 30.5q-26.5 24.5-43.25 62.5t-26.5 82-13 91.25-2.25 90.75zM173 488.5q-1-38.5 3-75.25t13.75-70.5 27.25-58.25q8-11.5 28-19.25t43.25-8.25 45.25 8.25 35 30.25q26.5 45 36.25 97.75t8.25 103.5-11.25 93.25-21.75 68q-15.5 31.5-40 42.5t-50.75 7.75-49.25-16.5-33-30.75q-9-14.5-16.25-41t-12-59.75-5.75-71.75zM250 908l114.5 176 23.5 2-7-41 61.5 5.5-6.5-25 21.5-9-136-121-24.5 25-36-23z" />
<glyph unicode="&#xd4;" d="M29.5 497q1 43.5 5.25 79.75t10.25 58.75q14.5 58.5 38.5 99.5t55.75 67 71.25 39.25 84.5 17.75q9 1 22.5 0.5t24.5-1.5l11.5-65.5 61 22.5 15.5-63.5 64.5 14q20.5-23.5 34.25-49t18.25-57.5q9-70.5 10.5-142.25t-7.75-135.25-31.25-115.25-59.5-83.25q-39-33-90.25-45.75t-101-11.25-91.75 14-61.5 30.5q-26.5 24.5-43.25 62.5t-26.5 82-13 91.25-2.25 90.75zM83 904l126 166 51-9.5 25.5 26.5 44-12 35 8 137.5-166-6.5-6-25.5 12.5-15.5-37-28.5 13.5-33-9.5-112.5 106.5-91-106.5-25.5-9-27 28.5-43-11zM173 488.5q-1-38.5 3-75.25t13.75-70.5 27.25-58.25q8-11.5 28-19.25t43.25-8.25 45.25 8.25 35 30.25q26.5 45 36.25 97.75t8.25 103.5-11.25 93.25-21.75 68q-15.5 31.5-40 42.5t-50.75 7.75-49.25-16.5-33-30.75q-9-14.5-16.25-41t-12-59.75-5.75-71.75z" />
<glyph unicode="&#xd5;" d="M29.5 497q1 43.5 5.25 79.75t10.25 58.75q14.5 58.5 38.5 99.5t55.75 67 71.25 39.25 84.5 17.75q9 1 22.5 0.5t24.5-1.5l11.5-65.5 61 22.5 15.5-63.5 64.5 14q20.5-23.5 34.25-49t18.25-57.5q9-70.5 10.5-142.25t-7.75-135.25-31.25-115.25-59.5-83.25q-39-33-90.25-45.75t-101-11.25-91.75 14-61.5 30.5q-26.5 24.5-43.25 62.5t-26.5 82-13 91.25-2.25 90.75zM69.5 978.5q5 8 9.25 15.75t9.25 15.25q17.5 27.5 36.5 46.5t52.5 26q36 6 57.5 0t39-17.5q10-6 19.25-13.25t20.75-14.25 23.5-13.75 27.5-11.75q14.5-5 27.25-2t23.5 10.75 20 18 16.25 20.25q5 6 9.25 12.75t7.25 11.75q3 0 6-0.5t7.5-0.5l-3.5-26.5h26l-2-25.5 15-8.5q-12.5-25.5-29.25-51.5t-30.25-37.5q-26.5-24.5-60.25-30.75t-66.25 4.25q-11.5 3-29 14.5-9 5-18.75 12t-19.25 13.5q-19.5 13.5-39.25 25t-40.25 14q-8 0-21-12.5t-24-26.5q-5-6-10.25-12.75t-10.25-11.75l-4.5-6.5-9 1 10 28h-33.5l7 19.5q-5 4-9.75 7t-9.75 8zM173 488.5q-1-38.5 3-75.25t13.75-70.5 27.25-58.25q8-11.5 28-19.25t43.25-8.25 45.25 8.25 35 30.25q26.5 45 36.25 97.75t8.25 103.5-11.25 93.25-21.75 68q-15.5 31.5-40 42.5t-50.75 7.75-49.25-16.5-33-30.75q-9-14.5-16.25-41t-12-59.75-5.75-71.75z" />
<glyph unicode="&#xd6;" d="M29.5 497q1 43.5 5.25 79.75t10.25 58.75q14.5 58.5 38.5 99.5t55.75 67 71.25 39.25 84.5 17.75q9 1 22.5 0.5t24.5-1.5l11.5-65.5 61 22.5 15.5-63.5 64.5 14q20.5-23.5 34.25-49t18.25-57.5q9-70.5 10.5-142.25t-7.75-135.25-31.25-115.25-59.5-83.25q-39-33-90.25-45.75t-101-11.25-91.75 14-61.5 30.5q-26.5 24.5-43.25 62.5t-26.5 82-13 91.25-2.25 90.75zM133.5 941.25q-0.5 19.75 3.5 50.75 3 21.5 16.5 37.75t31.5 25.5 38.75 9.25 39.25-12q6-4 8.75-20.5t1.75-37.5-7.25-40.5-18.25-29.5q-11.5-9-25.75-15.25t-28.25-9.5-25.75-2-16.75 7.25q-17.5 16.5-18 36.25zM173 488.5q-1-38.5 3-75.25t13.75-70.5 27.25-58.25q8-11.5 28-19.25t43.25-8.25 45.25 8.25 35 30.25q26.5 45 36.25 97.75t8.25 103.5-11.25 93.25-21.75 68q-15.5 31.5-40 42.5t-50.75 7.75-49.25-16.5-33-30.75q-9-14.5-16.25-41t-12-59.75-5.75-71.75zM339.5 946q-0.5 19.5 3.5 51 3 21.5 16.25 38t31.25 25 39 8.5 39.5-12q6-4 8.75-20.5t1.5-37.5-7.75-40.5-19-29.5q-11.5-9-25.25-15.25t-27.5-9.25-25.5-2-16.75 7q-17.5 17.5-18 37z" />
<glyph unicode="&#xd8;" d="M29.5 548q1 43.5 5.25 80t10.25 59q14.5 58.5 38.5 99.25t55.75 67 71.25 39 84.5 16.75q5 0 10.75 0.5t14.75 0.5l6 27.5 32 8.5 15.5-71 57 105.5 37-16-40-154 2-9 64.5 15.5q20.5-24.5 34.25-50.25t18.25-57.25q9-70.5 10.5-141.75t-7.75-134.25-31.25-114.25-59.5-83.25q-39-33-89.75-46t-104.25-12l-16-64.5-39 29.5-50.5-45-28.5 9 22.5 92.5q-14.5 6-23.5 12.25t-15.5 11.25q-26.5 24.5-43.25 61.75t-26.5 81.5-13 91.25-2.25 90.5zM175 574.75q-3-46.75 1-98.5t18.5-98.75l90 382q-28.5-6-48-18.25t-29.5-28.75q-11.5-17.5-20.25-54.25t-11.75-83.5zM299 308q23.5 3 41 12.25t28.5 26.75q21.5 36 31.75 77.25t11.75 84.25-4 85.5-15 81.5z" />
<glyph unicode="&#xd9;" d="M31.5 502.5q0 48 3.25 101.25t6.75 101.5 7.5 86 6.5 56.25l14 7 22.5-27.5 27 25.5 27.5-77.5 52 61.5q-5-35-9.5-81.5t-7.25-98.25-3.25-104 3.25-97.75 11.25-81.5 21-53.5q18.5-24.5 40-32.75t45-6.5 47.5 10.25 46.5 18q0 37-0.5 87t-0.5 104.25-0.5 109.75-0.5 103v138.5l17.5 9.5 45-86 39 78.5 24-3t27-3q0-24.5 0.75-71t0.75-107v-129.5q0-69-1.25-139.25t-2.75-137.25-3.5-122.5l-12-6-38 68.5-38-61.5-32.5 7-4.5 38q-47-22.5-95.5-35.75t-91-17.5-75.25 0.5-46.25 19.25q-35 36-54 126.5t-19 222.5zM118 1013.5l27.5 19.5 67.5-27.5 17.5 67.5 18.5-2 111.5-156-13.5-7-36.5 15.5-32-35z" />
<glyph unicode="&#xda;" d="M31.5 502.5q0 48 3.25 101.25t6.75 101.5 7.5 86 6.5 56.25l14 7 22.5-27.5 27 25.5 27.5-77.5 52 61.5q-5-35-9.5-81.5t-7.25-98.25-3.25-104 3.25-97.75 11.25-81.5 21-53.5q18.5-24.5 40-32.75t45-6.5 47.5 10.25 46.5 18q0 37-0.5 87t-0.5 104.25-0.5 109.75-0.5 103v138.5l17.5 9.5 45-86 39 78.5 24-3t27-3q0-24.5 0.75-71t0.75-107v-129.5q0-69-1.25-139.25t-2.75-137.25-3.5-122.5l-12-6-38 68.5-38-61.5-32.5 7-4.5 38q-47-22.5-95.5-35.75t-91-17.5-75.25 0.5-46.25 19.25q-35 36-54 126.5t-19 222.5zM248 914l114.5 176 23.5 2.5-7-41 61.5 5-6.5-24.5 21.5-9.5-136-120.5-24.5 24.5-36-22.5z" />
<glyph unicode="&#xdb;" d="M31.5 502.5q0 48 3.25 101.25t6.75 101.5 7.5 86 6.5 56.25l14 7 22.5-27.5 27 25.5 27.5-77.5 52 61.5q-5-35-9.5-81.5t-7.25-98.25-3.25-104 3.25-97.75 11.25-81.5 21-53.5q18.5-24.5 40-32.75t45-6.5 47.5 10.25 46.5 18q0 37-0.5 87t-0.5 104.25-0.5 109.75-0.5 103v138.5l17.5 9.5 45-86 39 78.5 24-3t27-3q0-24.5 0.75-71t0.75-107v-129.5q0-69-1.25-139.25t-2.75-137.25-3.5-122.5l-12-6-38 68.5-38-61.5-32.5 7-4.5 38q-47-22.5-95.5-35.75t-91-17.5-75.25 0.5-46.25 19.25q-35 36-54 126.5t-19 222.5zM92 918l126 166 51.5-9 25.5 26.5 44-12.5 35 8.5 137-166-6-6-26 12-15-36.5-29 13-32.5-9-112.5 106.5-91.5-106.5-25.5-9.5-26.5 29-43-11.5z" />
<glyph unicode="&#xdc;" d="M31.5 502.5q0 48 3.25 101.25t6.75 101.5 7.5 86 6.5 56.25l14 7 22.5-27.5 27 25.5 27.5-77.5 52 61.5q-5-35-9.5-81.5t-7.25-98.25-3.25-104 3.25-97.75 11.25-81.5 21-53.5q18.5-24.5 40-32.75t45-6.5 47.5 10.25 46.5 18q0 37-0.5 87t-0.5 104.25-0.5 109.75-0.5 103v138.5l17.5 9.5 45-86 39 78.5 24-3t27-3q0-24.5 0.75-71t0.75-107v-129.5q0-69-1.25-139.25t-2.75-137.25-3.5-122.5l-12-6-38 68.5-38-61.5-32.5 7-4.5 38q-47-22.5-95.5-35.75t-91-17.5-75.25 0.5-46.25 19.25q-35 36-54 126.5t-19 222.5zM144 946.5q-0.5 20 3.5 50.5 3 21.5 16.25 38t31.25 25.75 39 9.25 39.5-12.5q6-4 8.5-20.5t1.5-37.5-7-40.5-18.5-29.5q-11.5-9-25.75-15.25t-28-9.25-25.5-2-16.75 7q-17.5 16.5-18 36.5zM349.5 951q-0.5 19.5 4 51 3 21.5 16.25 38t31.25 25.25 39 8.75 39-12.5q6-4 8.75-20.5t1.75-37.5-7.75-40.25-18.75-29.75q-11.5-9-25.25-15.25t-27.5-9.25-25.75-2-17 7q-17.5 17.5-18 37z" />
<glyph unicode="&#xdd;" d="M394 1038l115 176 23.5 2-7-41 61.5 5-6.5-24.5 21.5-9-136-121-24.5 24.5-36-22.5zM17.5 896.5l32.5 5.5 8.5 16 57-49v79l25 1 140-314.5 131 325.5 23.5 4.5-5-84 73 63.5 11-13.5h24.5l-187.5-439.5 2.5-344-28 6.5-20.5-18.5-42 60.5-36.5-72-17.5 2-9.5 344z" horiz-adv-x="540" />
<glyph unicode="&#xdf;" d="M31.5 924.5q73.5 23.5 157.75 32.75t158.75-2.25q43-6 78-19.75t60-35.25 38.75-51.75 13.75-71.25q0-12.5-5.5-33.5t-20.5-46.5-40-54.75-63-58.75q58.5-29.5 92.75-60.5t50.75-60.5 18.5-57.25-3-51.25q-8-33-33.25-63t-61.75-57.25-80.5-50.75-88-42l1 39-24.5 6 49.5 58.5h-68l6.5 29.5q26.5 12.5 51 26.25t43.5 30.75 29.25 38.5 8.25 48q-3 31.5-25.5 48t-52.75 21-63-0.5-55.25-15.5q-1-9-2.25-35.5t-2.75-63.5-2.5-79-1.5-81-1.5-71.25-1-48.25l-25.5 30.5-43-33.5-17.5 36.5-42-17.5v647.5l-19.5 26.5 48 29.5-57 41 22.5 30zM194.5 705.25q0-51.25 8.5-118.75 37 10 65.5 24t50.5 28.75 36.25 29 21.75 25.75q24.5 39 10 65.5t-45 41q-27.5 12.5-65 11.25t-80.5-21.75q-2-33.5-2-84.75z" horiz-adv-x="593" />
<glyph unicode="&#xe0;" d="M12.5 147l132 632 41-12.5 37.5 33 56.5-69.5 32 62.5 35.5-21.5 33 19 119.5-647-22.5 15.5-37.5-21.5-29 37-27.5-28-38 138.5-190.5-15.5-36.5-139.5-10.5-4-32.5 41-41-32.5zM69.5 968.5l28 19.5 67.5-28 17.5 68 18-2.5 112-155.5-13.5-7-37 15.5-31.5-35zM180 385.5l146.5 13.5-51 229.5-43-3z" horiz-adv-x="509" />
<glyph unicode="&#xe1;" d="M12.5 147l132 632 41-12.5 37.5 33 56.5-69.5 32 62.5 35.5-21.5 33 19 119.5-647-22.5 15.5-37.5-21.5-29 37-27.5-28-38 138.5-190.5-15.5-36.5-139.5-10.5-4-32.5 41-41-32.5zM180 385.5l146.5 13.5-51 229.5-43-3zM207 869l114.5 176 23.5 2-7-40.5 61.5 5-6.5-24.5 21.5-9.5-136-120.5-24.5 24.5-36-22.5z" horiz-adv-x="509" />
<glyph unicode="&#xe2;" d="M12.5 147l132 632 41-12.5 37.5 33 56.5-69.5 32 62.5 35.5-21.5 33 19 119.5-647-22.5 15.5-37.5-21.5-29 37-27.5-28-38 138.5-190.5-15.5-36.5-139.5-10.5-4-32.5 41-41-32.5zM71.5 853.5l112 173.5 45-10.5 23.5 27.5 39-12 30.5 8 122-172-5-6-23 12-14-37.5-25.5 13-29-9-100 110.5-81-110.5-22.5-9.5-23.5 30-39-12.5zM180 385.5l146.5 13.5-51 229.5-43-3z" horiz-adv-x="509" />
<glyph unicode="&#xe3;" d="M12.5 147l132 632 41-12.5 37.5 33 56.5-69.5 32 62.5 35.5-21.5 33 19 119.5-647-22.5 15.5-37.5-21.5-29 37-27.5-28-38 138.5-190.5-15.5-36.5-139.5-10.5-4-32.5 41-41-32.5zM41 908q5 8 9.25 14.75t8.25 13.75q15.5 25.5 33.25 43.5t49.75 23q33 6 52.75 1t37.25-16q9-6 17.75-12.75t19.25-13.25q11.5-7 22.5-12.5t25.5-11q13.5-4 25.25-1.5t22 9.75 18.25 16.5 15.5 18.25q8 10 15 24 3 0 6.25-0.75t6.25-0.75l-3-25.5h24.5l-2-23.5 14.5-7q-11.5-23.5-27.5-47.75t-28-35.25q-25.5-22.5-57.25-28.25t-61.75 3.75q-5 2-11.75 5.5t-14.75 8.5-17.25 11.25-17.75 12.75q-18.5 12.5-37.25 22.5t-37.25 12q-8 0-20-10.75t-23-23.75q-5-6-9.25-12.25t-9.25-11.75l-4-5-8 1 9 25.5h-31l6.5 17.5q-5 4-9.25 7.25t-9.25 7.25zM180 385.5l146.5 13.5-51 229.5-43-3z" horiz-adv-x="509" />
<glyph unicode="&#xe4;" d="M12.5 147l132 632 41-12.5 37.5 33 56.5-69.5 32 62.5 35.5-21.5 33 19 119.5-647-22.5 15.5-37.5-21.5-29 37-27.5-28-38 138.5-190.5-15.5-36.5-139.5-10.5-4-32.5 41-41-32.5zM95.75 891q-0.75 19 3.75 48.5 2 20.5 13.75 36.5t28.5 24.25 35.75 8.25 35.5-11.5q5-3 8.25-19.5t1.5-35.75-7.25-38.75-17-29q-10-9-22.75-15.25t-25.75-8.75-23.25-1.5-15.25 6q-15 17.5-15.75 36.5zM180 385.5l146.5 13.5-51 229.5-43-3zM283 895q-0.5 19 3.5 49 2 20.5 14 36.25t28.25 24.5 35.25 8.75 36.5-12.5q5-3 7.5-19.25t1.5-35.75-6.5-39-17-28.5q-10-9-23-15.25t-25.75-9-23-1.75-15.25 7.5q-15.5 16-16 35z" horiz-adv-x="509" />
<glyph unicode="&#xe5;" d="M12.5 147l128 610.5-8.5 3q-42 16.5-61 49.25t-15.75 68 29.25 65.5 75 41.75 102.5 14.25 101.5-12.25l3-50.5 60.5 12.5q13.5-17.5 19.5-40.5t4.5-47-10.75-44.5-25.75-32q-5-3-11.5-7t-19-10.5l115.5-624.5-22.5 15.5-37.5-21.5-29 37-27.5-28-38 137.5-190.5-15.5-36.5-138.5-10.5-4-32.5 40-41-31.5zM150 867q-3.5-16.5 18-30.5 13.5-9 35-11.75t44.5-0.75 44.5 7.25 33.5 11.25q13.5 6 19.5 19.25t-3 28.75q-5 8-16.25 13.25t-25.75 7.25-30.25 1.5-31.25-2.5q-16.5-2-33.25-5.5t-28.25-10q-23.5-11-27-27.5zM180 384.5l146.5 13.5-51 228.5-43-3z" horiz-adv-x="509" />
<glyph unicode="&#xe6;" d="M-2 146l268 633 37-12.5 45 33 16.5-27.5 268.5 19 9-38.5-60.5-42 57.5-17.5-7-20.5-140.5-12.5-3-166.5 139 5-15-50.5 27.5-11-5-26.5-144.5-14.5 5-180 145.5 11-9-50 25.5-12.5-10.5-36-227-14 2 23.5-29-4-2 30.5-24.5-10-9 130-192.5-15.5-65.5-139.5-12.5-4-23.5 41-48-32.5zM216 385.5l147.5 13.5v229.5l-44-3z" horiz-adv-x="689" />
<glyph unicode="&#xe7;" d="M36 464.5q0 19.5 3.5 49.25t10.75 63.5 19.5 68 29.5 64.5 41 53.25 53.25 32.5q50 15.5 98.25 18.5t100.25-8.5q2-3 3.25-7.5t3.25-8l-71-23.5 50.5-28.5-22.5-23.5 9-25.5q-13.5-1-29.75-2.75t-32.75-4.75-31.25-7-26.25-10q-20.5-10-33.75-36.75t-21.5-59-11.75-63.5-3.5-50.75q0-17.5 2.5-41.5t8.75-49.25 17-48.25 28.25-37.5q9-8 26.5-12.5t39-7.25 44.5-3.75 43.5-1q-2-2-4-5t-5-8l21.5-23.5-51.5-29 56.5-20.5q-2-8-4-12-17.5-4-35.5-7.75t-39.5-6.75q7-64.5-9.75-101.25t-60.75-54.25q-49-19.5-87-20t-84 13.5l-3 17.5 42 20.5-46.5 39 10.5 21.5q22.5-4 44.5-7t37.5 1q20.5 5 34.75 22t14.25 43.5q-35 4-58.5 13-39 15.5-62.5 52t-36.75 81-17.25 93-4 88.5z" horiz-adv-x="434" />
<glyph unicode="&#xe8;" d="M22.5 961l27.5 19.5 68-27.5 17 67.5 18.5-2 111.5-155.5-13-7-37 15-31.5-34.5zM34 726.5l14 33-7 13.5 293 19.5 9-40-63.5-44 60.5-18.5-8-22.5-149.5-13.5-3.5-157.5 149.5 5-17-53.5 29.5-12-5-27.5-155-15.5 6.5-167 154.5 6-10-53 27.5-12.5-11.5-39-241.5-14 4 52-62.5-4 6.5 479-12.5 20.5 44 38z" horiz-adv-x="362" />
<glyph unicode="&#xe9;" d="M34 726.5l14 33-7 13.5 293 19.5 9-40-63.5-44 60.5-18.5-8-22.5-149.5-13.5-3.5-157.5 149.5 5-17-53.5 29.5-12-5-27.5-155-15.5 6.5-167 154.5 6-10-53 27.5-12.5-11.5-39-241.5-14 4 52-62.5-4 6.5 479-12.5 20.5 44 38zM127 862l114.5 176 23.5 2-7-41 61.5 5-6-24.5 21.5-9-136.5-121-24.5 24.5-36-22.5z" horiz-adv-x="362" />
<glyph unicode="&#xea;" d="M25.5 844.5l94.5 130 37.5-7 18.5 20.5 33-9.5 26.5 6.5 101.5-130.5-4-5-19.5 10.5-11.5-29-21.5 10.5-23.5-7.5-84 83-68.5-83-18.5-7-19.5 22.5-32.5-9zM34 726.5l14 33-7 13.5 293 19.5 9-40-63.5-44 60.5-18.5-8-22.5-149.5-13.5-3.5-157.5 149.5 5-17-53.5 29.5-12-5-27.5-155-15.5 6.5-167 154.5 6-10-53 27.5-12.5-11.5-39-241.5-14 4 52-62.5-4 6.5 479-12.5 20.5 44 38z" horiz-adv-x="362" />
<glyph unicode="&#xeb;" d="M34 726.5l14 33-7 13.5 293 19.5 9-40-63.5-44 60.5-18.5-8-22.5-149.5-13.5-3.5-157.5 149.5 5-17-53.5 29.5-12-5-27.5-155-15.5 6.5-167 154.5 6-10-53 27.5-12.5-11.5-39-241.5-14 4 52-62.5-4 6.5 479-12.5 20.5 44 38zM34.5 875.75q-0.5 18.75 3.5 48.75 2 20.5 13.75 36.25t28.75 24 35.75 8.25 35.25-11.5q5-3 8.25-19.25t1.5-35.75-7.25-39-17-28.5q-10-9-22.75-15.25t-25.5-9-23-1.75-15.75 6.5q-15 17.5-15.5 36.25zM221.5 880q-0.5 19 4 48.5 2 20.5 13.75 36.25t28 24.5 35.25 8.75 36.5-12q5-3 7.5-19.5t1.5-36-6.5-39-17-28.5q-10-9-22.75-15.25t-25.75-8.75-23.25-1.5-15.25 7q-15.5 16.5-16 35.5z" horiz-adv-x="362" />
<glyph unicode="&#xec;" d="M-34 950l28 19.5 67.5-27.5 17.5 67.5 18.5-2 111.5-156-13.5-7-37 15.5-31.5-35zM50 139v637l22.5 8 34-80 43 77 30.5-16.5 29 10.5-17.5-647.5-12.5-4-43 61.5-29.5-54-26.5 10z" horiz-adv-x="254" />
<glyph unicode="&#xed;" d="M50 139v637l22.5 8 34-80 43 77 30.5-16.5 29 10.5-17.5-647.5-12.5-4-43 61.5-29.5-54-26.5 10zM78 860l114.5 176 23.5 2-7-41 61.5 5-6.5-24.5 21.5-9-136-121-24.5 24.5-36-22.5z" horiz-adv-x="254" />
<glyph unicode="&#xee;" d="M-14.5 851.5l86 155 36-8.5 17.5 24.5 30.5-11 23.5 7 95.5-153.5-5-6-17.5 11-10.5-33.5-19.5 12-22.5-9-77.5 99-63.5-99-17.5-8.5-18.5 27-29.5-10.5zM50 139v637l22.5 8 34-80 43 77 30.5-16.5 29 10.5-17.5-647.5-12.5-4-43 61.5-29.5-54-26.5 10z" horiz-adv-x="254" />
<glyph unicode="&#xef;" d="M-7.5 883.5q-0.5 18.5 2.5 48 2 19.5 12.25 35.25t24.5 24.5 30.25 8.75 30-11q4-4 6.75-20t1.75-35.5-6.25-38.5-14.25-28q-8-9-19.5-15.25t-22.25-8.75-19.5-1.5-12.75 7q-13 16.5-13.5 35zM50 139v637l22.5 8 34-80 43 77 30.5-16.5 29 10.5-17.5-647.5-12.5-4-43 61.5-29.5-54-26.5 10zM152 887.5q-0.5 18.5 2.5 48 2 20.5 12.25 36.5t24.75 24 30.25 8 30.25-11q4-4 6-20t1.5-35.5-5.5-38.25-14.5-28.25q-9-8-19.75-14.25t-21.5-9.25-20-2-13.25 7q-12.5 16.5-13 35z" horiz-adv-x="254" />
<glyph unicode="&#xf1;" d="M47 767.5l45 23.5 36-37.5 45 15 209-379.5h20.5l-6 376.5 26.5 15.5 46-63.5 43 64.5 18.5-3-1-657.5-11.5-7-36.5 38-51.5-36-20.5 4-206.5 325.5-26 3-8-330.5-29.5 4-40 54.5-30-60.5-17.5 9zM79 901q5 8 8.5 15.25t7.5 14.25q15.5 25.5 33.5 43t49.5 23.5q33 6 53 0.5t37.5-17q9-5 17.75-11.75t18.75-12.75q11.5-7 22.75-13.25t25.75-10.25q13.5-4 25-1.5t21.75 9.75 19 16.5 15.75 18.25q5 6 8.25 11.75t7.25 10.75h11.5l-2-25.5h23.5l-1-23.5 13-7q-11.5-23.5-27.25-47.75t-27.75-35.25q-24.5-23.5-57-28.75t-62 3.75q-10 3-26.5 14.5-8 5-17.25 11.25t-17.75 12.25q-17.5 11.5-36.75 22.25t-37.75 12.75q-8 0-20-11.25t-22-23.75q-5-6-9.75-12.25t-8.75-11.25l-5-5-8.5 1 10.5 25.5h-32l6.5 17.5q-4 3-8.25 6.75t-9.25 6.75z" horiz-adv-x="574" />
<glyph unicode="&#xf2;" d="M36.25 369.75q-4.75 57.75 0.75 116.25 10 104.5 29 164t56 91q13.5 11.5 34.25 23.25t46.5 20.5 55.25 12.25 59.5-0.5l-2-59.5 50 30.5 21.5-31.5 34 13.5q38-39 58.25-111.75t20.25-178.25q0-35-4-76.5t-14.25-81.25-27.25-73-42.5-51.75q-36-25.5-72.25-39t-71-17-65.5 0.5-55.25 13.5q-31.5 11.5-54.75 46.25t-37.5 82.75-19 105.75zM93 961l28 19.5 67.5-27.5 17.5 67.5 18.5-2 111.5-155.5-13.5-7-37 15-31.5-34.5zM158.75 463.5q-4.25-56.5 3.5-109.75t28.25-84.75q10-16.5 29.5-24.75t41.5-8.25 42 7.75 30.5 24.25q10 16.5 19.75 47.75t15.5 69 6.75 78.75-5.75 78.5-22 67-41.25 45q-17.5 10-41 9.5t-40.5-15.5q-29.5-26.5-46-77.25t-20.75-107.25z" horiz-adv-x="526" />
<glyph unicode="&#xf3;" d="M36.25 369.75q-4.75 57.75 0.75 116.25 10 104.5 29 164t56 91q13.5 11.5 34.25 23.25t46.5 20.5 55.25 12.25 59.5-0.5l-2-59.5 50 30.5 21.5-31.5 34 13.5q38-39 58.25-111.75t20.25-178.25q0-35-4-76.5t-14.25-81.25-27.25-73-42.5-51.75q-36-25.5-72.25-39t-71-17-65.5 0.5-55.25 13.5q-31.5 11.5-54.75 46.25t-37.5 82.75-19 105.75zM158.75 463.5q-4.25-56.5 3.5-109.75t28.25-84.75q10-16.5 29.5-24.75t41.5-8.25 42 7.75 30.5 24.25q10 16.5 19.75 47.75t15.5 69 6.75 78.75-5.75 78.5-22 67-41.25 45q-17.5 10-41 9.5t-40.5-15.5q-29.5-26.5-46-77.25t-20.75-107.25zM207 869l114.5 176 23.5 2-7-40.5 61.5 5-6.5-24.5 21.5-9.5-136-120.5-24.5 24.5-36-22.5z" horiz-adv-x="526" />
<glyph unicode="&#xf4;" d="M36.25 369.75q-4.75 57.75 0.75 116.25 10 104.5 29 164t56 91q13.5 11.5 34.25 23.25t46.5 20.5 55.25 12.25 59.5-0.5l-2-59.5 50 30.5 21.5-31.5 34 13.5q38-39 58.25-111.75t20.25-178.25q0-35-4-76.5t-14.25-81.25-27.25-73-42.5-51.75q-36-25.5-72.25-39t-71-17-65.5 0.5-55.25 13.5q-31.5 11.5-54.75 46.25t-37.5 82.75-19 105.75zM86 842.5l111.5 172 46-9 22.5 27.5 39-13.5 32 9.5 122-173-6.5-6.5-22.5 13.5-13-39-26 14.5-29.5-9.5-99.5 109.5-81-109.5-23.5-10-23.5 29.5-37.5-11zM158.75 463.5q-4.25-56.5 3.5-109.75t28.25-84.75q10-16.5 29.5-24.75t41.5-8.25 42 7.75 30.5 24.25q10 16.5 19.75 47.75t15.5 69 6.75 78.75-5.75 78.5-22 67-41.25 45q-17.5 10-41 9.5t-40.5-15.5q-29.5-26.5-46-77.25t-20.75-107.25z" horiz-adv-x="526" />
<glyph unicode="&#xf5;" d="M36.25 369.75q-4.75 57.75 0.75 116.25 10 104.5 29 164t56 91q13.5 11.5 34.25 23.25t46.5 20.5 55.25 12.25 59.5-0.5l-2-59.5 50 30.5 21.5-31.5 34 13.5q38-39 58.25-111.75t20.25-178.25q0-35-4-76.5t-14.25-81.25-27.25-73-42.5-51.75q-36-25.5-72.25-39t-71-17-65.5 0.5-55.25 13.5q-31.5 11.5-54.75 46.25t-37.5 82.75-19 105.75zM57.5 907q5 8 8.5 15.25t9 13.25q15.5 25.5 32.75 43.5t49.75 23q33 6 53 1t37.5-16q9-6 17.75-12.25t18.75-13.75q10-6 21.5-12t26-11.5q13.5-4 25.5-1.5t22.25 9.75 18.5 16.5 15.25 18.25q8 10 15.5 23.5 3 0 6.25-0.5t6.25-0.5l-3-25.5h24.5l-2-23.5 14-7q-11.5-23.5-27.75-47.25t-28.25-34.75q-24.5-23.5-56.25-28.75t-61.75 4.25q-5 2-12.25 5t-15.25 8-16.75 11.75-17.25 12.25q-18.5 12.5-37.25 23t-37.25 12.5q-8 0-20-11.25t-23-24.25q-5-6-9.75-11.75t-8.75-11.25l-4-6-9.5 2 10.5 24.5h-32l6.5 18.5-8.5 6.5q-4 3-9 7zM158.75 463.5q-4.25-56.5 3.5-109.75t28.25-84.75q10-16.5 29.5-24.75t41.5-8.25 42 7.75 30.5 24.25q10 16.5 19.75 47.75t15.5 69 6.75 78.75-5.75 78.5-22 67-41.25 45q-17.5 10-41 9.5t-40.5-15.5q-29.5-26.5-46-77.25t-20.75-107.25z" horiz-adv-x="526" />
<glyph unicode="&#xf6;" d="M36.25 369.75q-4.75 57.75 0.75 116.25 10 104.5 29 164t56 91q13.5 11.5 34.25 23.25t46.5 20.5 55.25 12.25 59.5-0.5l-2-59.5 50 30.5 21.5-31.5 34 13.5q38-39 58.25-111.75t20.25-178.25q0-35-4-76.5t-14.25-81.25-27.25-73-42.5-51.75q-36-25.5-72.25-39t-71-17-65.5 0.5-55.25 13.5q-31.5 11.5-54.75 46.25t-37.5 82.75-19 105.75zM111 881q-0.5 19 3.5 48.5 2 20.5 14 36.25t28.75 24 35.75 8.25 35.5-11q5-3 8-19.5t1.5-36-7-39-17-28.5q-10-9-23-15.25t-25.75-8.75-23-1.5-15.25 6q-15.5 17.5-16 36.5zM158.75 463.5q-4.25-56.5 3.5-109.75t28.25-84.75q10-16.5 29.5-24.75t41.5-8.25 42 7.75 30.5 24.25q10 16.5 19.75 47.75t15.5 69 6.75 78.75-5.75 78.5-22 67-41.25 45q-17.5 10-41 9.5t-40.5-15.5q-29.5-26.5-46-77.25t-20.75-107.25zM298.5 885q-0.5 19 3.5 48.5 2 20.5 13.75 36.5t28.25 24.5 35.5 8.5 36-12q5-3 7.75-19.5t1.75-36-6.75-38.75-16.75-28.75q-10-9-23-15.25t-25.75-8.75-23-1.5-15.25 7q-15.5 16.5-16 35.5z" horiz-adv-x="526" />
<glyph unicode="&#xf7;" d="M45 491l60.5 56.5-56.5 17.5 14.5 43 345-5 9.5-36-48.5-37 62.5-28.5-23.5-33-349-43 16.5 47.5zM162.5 245.5q-0.5 21.5 3.5 56.5 3 22.5 15.25 40.75t29.25 28 36.25 9.75 36.75-13q5-4 8.25-22.5t1.75-41-7.25-44.5-16.75-33.5q-11.5-10-24.75-17.25t-26-10.25-23.5-1.5-16.25 7.5q-16 19.5-16.5 41zM163 717.5q-1 21.5 3 56.5 3 23.5 15.25 41.75t29.25 28 36.25 9.75 36.75-13q5-4 8.25-22.5t1.75-41.5-7.25-45-16.75-33.5q-10-10-24-17.25t-26.75-10.25-23.5-1.5-16.25 7.5q-15 19.5-16 41z" horiz-adv-x="468" />
<glyph unicode="&#xf8;" d="M35.75 377q-4.25 55 1.25 109 10 104.5 29 163.5t56 90.5q11.5 9 28.75 19.25t39.25 19 47.5 14 53.5 5.25l11 48 29 7 14-67.5 54.5 101.5 33.5-15.5-32.5-131 20.5 8q38-39 58.25-111t20.25-177.5q0-35-4-76.5t-14.25-80.75-27.25-72.5-42.5-51.75q-42-29.5-84-42.5t-85-15l-15-59.5-36 28-47-43-26.5 9 20 85q-29.5 16.5-51 52.25t-34.25 82.75-17 102zM159.75 400.25q3.25-54.25 15.25-100.75l88 379q-14.5-3-23-6.5t-14.5-10q-24.5-22.5-40.5-64.5t-22.25-92.5-3-104.75zM272.5 236q45 6 61.5 32 11.5 18.5 21 53.75t14.75 79.75 4 94.25-11.25 96.75z" horiz-adv-x="526" />
<glyph unicode="&#xf9;" d="M34 388q0 57.5 0.5 104t3 90 6.5 89 11.5 100l33.5-13.5 40 30.5 38-23.5 14 5q-3-30.5-6.5-79.75t-7-103-5-104.75 0.5-85q5-96.5 52-122.5t132 26q6 14.5 9.75 41.75t5.75 61.5 3 73.25 1 78.5q1 66.5 1.5 131.75t2.5 109.25l28 7 34.5-69.5 45 65.5 24 1q-1-42-2.25-115.75t-2.25-163.75-1-186.75 2-183.25l-25.5 8.5-34.5-30-38 25-30-14.5q-1 5-3.5 13.75t-9.5 27.25q-30.5-13.5-67.5-23.25t-72.25-13.25-65.5-0.5-46.75 15.5q-25.5 18.5-40 51.25t-21.5 67.5-8.5 65-1.5 44.75zM93 961l28 19.5 67.5-27.5 17.5 67.5 18.5-2 111.5-155.5-13.5-7-37 15-31.5-34.5z" horiz-adv-x="527" />
<glyph unicode="&#xfa;" d="M34 388q0 57.5 0.5 104t3 90 6.5 89 11.5 100l33.5-13.5 40 30.5 38-23.5 14 5q-3-30.5-6.5-79.75t-7-103-5-104.75 0.5-85q5-96.5 52-122.5t132 26q6 14.5 9.75 41.75t5.75 61.5 3 73.25 1 78.5q1 66.5 1.5 131.75t2.5 109.25l28 7 34.5-69.5 45 65.5 24 1q-1-42-2.25-115.75t-2.25-163.75-1-186.75 2-183.25l-25.5 8.5-34.5-30-38 25-30-14.5q-1 5-3.5 13.75t-9.5 27.25q-30.5-13.5-67.5-23.25t-72.25-13.25-65.5-0.5-46.75 15.5q-25.5 18.5-40 51.25t-21.5 67.5-8.5 65-1.5 44.75zM219 852.5l115 176.5 23.5 2-7.5-41 61.5 5-6-24.5 21.5-9.5-136-120.5-25 24.5-35.5-22.5z" horiz-adv-x="527" />
<glyph unicode="&#xfb;" d="M34 388q0 57.5 0.5 104t3 90 6.5 89 11.5 100l33.5-13.5 40 30.5 38-23.5 14 5q-3-30.5-6.5-79.75t-7-103-5-104.75 0.5-85q5-96.5 52-122.5t132 26q6 14.5 9.75 41.75t5.75 61.5 3 73.25 1 78.5q1 66.5 1.5 131.75t2.5 109.25l28 7 34.5-69.5 45 65.5 24 1q-1-42-2.25-115.75t-2.25-163.75-1-186.75 2-183.25l-25.5 8.5-34.5-30-38 25-30-14.5q-1 5-3.5 13.75t-9.5 27.25q-30.5-13.5-67.5-23.25t-72.25-13.25-65.5-0.5-46.75 15.5q-25.5 18.5-40 51.25t-21.5 67.5-8.5 65-1.5 44.75zM89 867l111.5 172 46.5-9 22.5 27.5 38.5-13.5 31 8.5 122-172-5.5-6.5-22.5 13.5-14-39-25 14.5-29.5-10.5-100.5 111-80.5-111-22.5-9-24 29.5-37.5-11z" horiz-adv-x="527" />
<glyph unicode="&#xfc;" d="M34 388q0 57.5 0.5 104t3 90 6.5 89 11.5 100l33.5-13.5 40 30.5 38-23.5 14 5q-3-30.5-6.5-79.75t-7-103-5-104.75 0.5-85q5-96.5 52-122.5t132 26q6 14.5 9.75 41.75t5.75 61.5 3 73.25 1 78.5q1 66.5 1.5 131.75t2.5 109.25l28 7 34.5-69.5 45 65.5 24 1q-1-42-2.25-115.75t-2.25-163.75-1-186.75 2-183.25l-25.5 8.5-34.5-30-38 25-30-14.5q-1 5-3.5 13.75t-9.5 27.25q-30.5-13.5-67.5-23.25t-72.25-13.25-65.5-0.5-46.75 15.5q-25.5 18.5-40 51.25t-21.5 67.5-8.5 65-1.5 44.75zM121.5 891q-0.5 19 3.5 48.5 2 20.5 13.75 36.5t28.75 24.25 35.75 8.25 35.25-11.5q5-3 8.25-19.5t1.75-35.75-7.25-38.75-16.75-29q-10-9-23-15.25t-25.75-8.75-23-1.5-15.75 6q-15 17.5-15.5 36.5zM308.5 895q-0.5 19 4 49 2 20.5 13.75 36.25t28 24.5 35.25 8.75 36.5-12.5q5-3 7.5-19.25t1.5-35.75-6.5-39-17-28.5q-10-9-22.75-15.25t-25.75-9-23.25-1.75-15.25 7.5q-15.5 16-16 35z" horiz-adv-x="527" />
<glyph unicode="&#xfd;" d="M16.5 767.5l18.5 18.5 55-42 3 60.5 39 5 111.5-258 16.5-2 62.5 252 15.5 3 20.5-58.5 42 49.5 13-17.5 38 13-168-637.5-18.5-10.5-21.5 46-47-46-22.5 15.5-12-4 62.5 280.5-54.5 2zM207 869l114.5 176 23.5 2-7-40.5 61.5 5-6.5-24.5 21.5-9.5-136-120.5-24.5 24.5-36-22.5z" horiz-adv-x="470" />
<glyph unicode="&#xff;" d="M16.5 767.5l18.5 18.5 55-42 3 60.5 39 5 111.5-258 16.5-2 62.5 252 15.5 3 20.5-58.5 42 49.5 13-17.5 38 13-168-637.5-18.5-10.5-21.5 46-47-46-22.5 15.5-12-4 62.5 280.5-54.5 2zM95.75 891q-0.75 19 3.75 48.5 2 20.5 13.75 36.5t28.5 24.25 35.75 8.25 35.5-11.5q5-4 8.25-20t1.5-35.75-7.25-38.75-17-28.5q-10-9-22.75-15.25t-25.75-8.75-23.25-1.5-15.25 6q-15 17.5-15.75 36.5zM283 895q-0.5 19 3.5 49 2 20.5 14 36.25t28.25 24.5 35.25 8.75 36.5-12.5q5-3 7.5-19.25t1.5-35.75-6.5-39-17-28.5q-10-9-23-15.25t-25.75-9-23-1.75-15.25 7.5q-15.5 16-16 35z" horiz-adv-x="470" />
<glyph unicode="&#x152;" d="M29.5 536.25q1 48.25 5.75 89.25t9.75 65.5q14.5 65.5 38.5 110.5t55.75 74.25 70.75 43.5 84 19.25q9 1 21.75 0.5t24.25-1.5l12.5-73.5 56 37-6 24.5 340 20.5-14.5-21.5 25.5-17.5-48-24.5 49-41-9-20.5-177-19.5-6.5-193.5 190.5 7 5.5-18.5-40-45 33.5-20.5-4-21.5-183.5-25.5 6.5-225 182 8 4-14.5-61-25.5 68.5-24.5-25.5-38 12-21.5-229.5-19.5 8.5 35-67.5-3 2 41q-42-39-94.75-55t-102.5-15.5-91.25 14-61 34q-26.5 26.5-43.25 68.5t-26 91-13 101.75-2.75 101zM171.5 527q-1.5-62.5 8.25-124t36.25-102.5q8-12.5 27.5-21t42.5-9.5 45.25 8.75 35.25 34.25q26.5 50 36.25 109t8.25 114.75-11.25 103.5-21.75 75.25q-14.5 35-39 47.25t-50.75 9-49.25-18.5-33-34.75q-13.5-23.5-23.25-76.25t-11.25-115.25z" horiz-adv-x="805" />
<glyph unicode="&#x153;" d="M36.25 369.75q-4.75 57.75 0.75 116.25 10 104.5 29 164t56 91q13.5 11.5 33.75 23.25t46 20.5 54.75 12.25 59-0.5l-2-60.5 53 39 280.5 16 8.5-38.5-59.5-42 57.5-17.5-8.5-20.5-139-12.5-3-166.5 139 5-16.5-50.5 28-11-4.5-26.5-144-14.5 5-180 145.5 11-10.5-50 25.5-12.5-10-36-226.5-14 4.5 50-53.5-4q-66.5-39-130-40.5t-108.5 15q-31.5 11.5-54.75 46.25t-37 82.75-18.5 105.75zM157 393q2.5-38 10.75-70.25t21.75-53.75q10-16.5 29.5-24.75t41.5-8.25 41.5 7.75 30 24.25q10 16.5 19.75 48.75t16 71.5 6.75 83-5.75 82.5-21.5 69.5-41.25 46.25q-17.5 10-41 9.5t-40.5-16q-19.5-18.5-33.5-48.5t-22.75-66.5-11.25-76.75 0-78.25z" horiz-adv-x="707" />
<glyph unicode="&#x178;" d="M17.5 821l32.5 5 8.5 14.5 57-44v70.5l25 1 140-282.5 131 293 23.5 4-5-76 73 57.5 11-12.5h24.5l-187.5-395 2.5-310.5-28 6.5-20.5-16.5-42 54-36.5-64.5-17.5 2-9.5 309.5zM118.5 951.5q-0.5 20 3.5 50.5 3 21.5 16.25 38t31.25 25.75 39 9.25 39.5-12.5q6-4 8.5-20.5t1.5-37.25-7.25-40.25-18.25-30q-11.5-9-25.75-15.25t-28-9.25-25.5-2-17.25 7q-17 16.5-17.5 36.5zM324 956q-0.5 19.5 3.5 51.5 3 21.5 16.5 37.75t31.25 25 38.75 8.75 39.5-12.5q6-4 8.75-20.25t1.75-37.25-7.75-40.5-19.25-30q-11.5-9-25-15.25t-27.5-9.25-25.75-2-16.75 7q-17.5 17.5-18 37z" horiz-adv-x="540" />
<glyph unicode="&#x2c6;" d="M77 735l126 166 51-9.5 25.5 26.5 44-12 35 8 137-166-6-6-25.5 12.5-15.5-37-28.5 13.5-33-9.5-112.5 106.5-91-106.5-26-9-26.5 28.5-43-11z" />
<glyph unicode="&#x2dc;" d="M-277.5 306q6 11.5 11.75 21.5t10.75 19.5q20.5 36 44.5 61.5t66 33.5q44 8 70.5 0.5t49.5-23q12.5-8 24-17.25t25-18.75q14.5-9 29.25-18.25t34.25-15.25q18.5-6 33.75-2t29 13.75 25 23 20.75 26.75q6 8 10.75 16.75t9.75 15.75q4 0 7.5-0.5t8-0.5l-3.5-36h32l-2-33.5 18.5-10.5q-8-16.5-17.5-33.75t-19-33-19.25-29.25-18.25-21.5q-33-33-75.25-40.5t-82.25 5.5q-7 2-15.75 7.25t-20.25 12.25-23 16.25-23 17.75q-23.5 17.5-49 32.25t-50.5 17.75q-10 0-26-15.75t-30-34.25q-7-8-13.25-16.75t-11.25-16.25l-6.5-8-11 2 13 36h-42l8.5 25.5q-5 5-11.25 9.75t-12.25 9.75z" horiz-adv-x="205" />
<glyph unicode="&#x2010;" d="M46 519l24.5 19.5-17.5 39.5 211 16.5-33.5-20.5 41-58-57.5-37 22.5-34-181-34.5-7.5 15 48.5 39z" horiz-adv-x="310" />
<glyph unicode="&#x2011;" d="M46 519l24.5 19.5-17.5 39.5 211 16.5-33.5-20.5 41-58-57.5-37 22.5-34-181-34.5-7.5 15 48.5 39z" horiz-adv-x="310" />
<glyph unicode="&#x2012;" d="M46 519l24.5 19.5-17.5 39.5 211 16.5-33.5-20.5 41-58-57.5-37 22.5-34-181-34.5-7.5 15 48.5 39z" horiz-adv-x="310" />
<glyph unicode="&#x2013;" d="M41 478l53 52-49 16.5 12.5 41 304-5 8-34-43-35 55.5-26.5-20.5-30.5-307-40 14 44z" horiz-adv-x="402" />
<glyph unicode="&#x2014;" d="M35 520l35.5 34.5-10 32 392 13.5 5-31-46-29.5 58.5-33-8-41-413-41-12 22.5 47 29z" horiz-adv-x="508" />
<glyph unicode="&#x2018;" d="M14.5 910l30.5 30.5 56.5-25.5 23.5 32 51-10.5 120-248.5-27.5-6.5-15.5-20.5-25.5 28-18.5-17.5z" horiz-adv-x="321" />
<glyph unicode="&#x2019;" d="M27.5 683.5l115 265.5 32.5 3-3-45 95.5 18.5 14-20.5-184-256-30 3 9.5 29.5z" horiz-adv-x="308" />
<glyph unicode="&#x201a;" d="M27.5 156.5l115 265 32.5 3-3-45 95.5 18.5 14-20.5-184-256-30 3 9.5 30z" horiz-adv-x="308" />
<glyph unicode="&#x201c;" d="M43 848.5l28.5 23.5 48.5-27.5 24.5 28.5 45-14 94-245-24.5-4-15.5-16.5-20.5 26.5-17-14zM239.5 931.5l31 20.5 18.5-29.5 36.5 38.5 25.5-32.5 34 16.5 16.5-239-32-3-2-36.5-36.5 6z" horiz-adv-x="439" />
<glyph unicode="&#x201d;" d="M30.5 640.5l37 258.5 29 10 7-40 77.5 37 16.5-12.5-99-266-25-6v28.5zM185.5 670.5l101 250 38-18.5 41 32.5 28.5-15.5h38l-162.5-239.5-31 22.5-37-42z" horiz-adv-x="459" />
<glyph unicode="&#x201e;" d="M36 118.5l36.5 258 29 10.5 7-40 78 36.5 16.5-12-99.5-266.5-24.5-6v28.5zM190.5 148l101.5 250 37.5-18.5 41 33 29-15.5h37.5l-162.5-239.5-31 22.5-36.5-42z" horiz-adv-x="459" />
<glyph unicode="&#x2022;" d="M41.5 452.25q-1.5 14.25 0 32.25t4.5 39.5q4 29.5 21.5 52.75t42 36 53.25 12.75 53.25-17.5q7-5 11.25-28.75t2.75-52.75-10.25-56.75-25.25-42.25q-15.5-12.5-34.25-21.5t-37.75-13-35-2.5-23 9.5q-11.5 12.5-16.5 25.25t-6.5 27z" horiz-adv-x="264" />
<glyph unicode="&#x2026;" d="M57 182q-0.5 21.5 3.5 56.5 3 23.5 15.25 41.75t29.25 28 36.5 9.75 36.5-13q5-4 8.25-22.5t1.75-41.5-7.25-45-16.75-33.5q-11.5-10-24.75-16.75t-26-9.75-23.5-2-16.25 7q-16 19.5-16.5 41zM282.5 182q-1 21.5 3 56.5 3 23.5 15.5 41.75t29.25 28 36.25 9.75 37-13q5-4 8-22.5t1.5-41.5-7-45-17-33.5q-10-10-24-16.75t-26.75-9.75-23.5-2-15.75 7q-15.5 19.5-16.5 41zM495.5 182q-1 21.5 3 56.5 3 23.5 15.5 41.75t29.25 28 36.25 9.75 37-13q6-4 8.5-22.5t1.5-41.5-7-45-17.5-33.5q-10-10-23.5-16.75t-26.75-9.75-24-2-15.75 7q-15.5 19.5-16.5 41z" horiz-adv-x="698" />
<glyph unicode="&#x2039;" d="M26.5 512.5l177.5 245 26.5 7 39-17.5 48 17.5 22.5-12 7 1-172-224.5 193.5-236.5-5-3-50 13.5-45-29-27 2z" horiz-adv-x="385" />
<glyph unicode="&#x203a;" d="M29.5 763.5l4.5 2 50-12 46 27.5 25.5-2 215-236.5-177-245-26.5-7-39 18.5-47-17.5-23.5 11.5-7.5-1 172 224z" horiz-adv-x="382" />
<glyph unicode="&#x2044;" d="M10 112.5l198 830.5 31.5 8 15.5-69.5 58.5 105.5 36.5-16.5-222-851-39 28.5-50-44z" horiz-adv-x="353" />
<glyph unicode="&#x20ac;" d="M30.5 365.5l60.5 27.5-38 50 53.5 2q-1 29.5-0.5 56.25t2.5 55.25l-48-4 17.5 29-44 28.5 23.5 25.5-4.5 47 73 2q10 41 26 79.5t38 70.75 49.75 56.25 61.25 37.5q39 15.5 86.5 13.75t105-28.25l4-19.5-58-34.5 50-53.5-32-17.5 17.5-33.5q-19.5 6-41 9t-42.5 2-41-7.5-37-22q-8-7-15.75-19t-17.25-30l123 3 2-17.5-44-42 43-38-8-15.5-147.5-11q-4-29.5-5.75-57.75t0.25-57.75l164 7 19.5-30-55.5-27.5 18.5-51-123-11.5q9-19.5 18.5-31.25t20.5-18.75q14.5-9 34.5-11.75t41-1.25 42 5.25 37.5 7.75q-4-12.5-5.5-24.5l-2-14.5 45-23.5-71.5-51 62.5-16.5-8-18.5q-41-16.5-91.25-21t-98 4.75-87 32.75-58.75 63.5q-10 20.5-17.25 46t-12.75 58.5l-72.5-6.5 7 28z" horiz-adv-x="535" />
<glyph unicode="&#x2122;" d="M47 872l20.5 9.5-10 24.5 178 11 1-4-22.5-15.5 19.5-28.5-12.5-6 5.5-13.5-58.5-7v-259l-19.5 5-12.5-21.5-25.5 8-5-16h-1l-3 283.5-53.5-5 13.5 8zM287.5 562l17.5 349h1l10.5-20.5 40 23.5 8-19.5 20.5 9.5 44-198 52.5 198 11-3 20.5 16 28.5-28.5 10.5 25.5h1l20.5-333.5-8.5 3-12-19.5-22.5 21.5-16.5-26.5-1 1-27.5 215-50.5-210-7 1-12.5-2-54 224-19.5-219-9 5-6.5-9-15 28.5z" horiz-adv-x="615" />
<glyph unicode="&#xe000;" d="M0 803.5h662.5v-662.5h-662.5v662.5z" horiz-adv-x="663" />
<glyph unicode="&#xfb01;" d="M30.5 703l20.5 29-9 30.5 326.5 15.5-18.5-63.5 24-14.5-10.5-25.5-169-11.5-3-150.5 151.5 3.5-13.5-53.5 31-12.5-6-28.5-164-19.5 6-261-20.5-8-35.5 73.5-32-67.5-12 16.5-28-8.5-6 497-21.5 6 45 27.5zM450.5 139v637l22.5 8 34-80 43 77 30.5-16.5 29 10.5-17.5-647.5-12.5-4-43 61.5-29.5-54-26.5 10z" horiz-adv-x="639" />
<glyph unicode="&#xfb02;" d="M30.5 703l20.5 29-9 30.5 326.5 15.5-18.5-63.5 24-14.5-10.5-25.5-169-11.5-3-150.5 151.5 3.5-13.5-53.5 31-12.5-6-28.5-164-19.5 6-261-20.5-8-35.5 73.5-32-67.5-12 16.5-28-8.5-6 497-21.5 6 45 27.5zM439.5 754.5l19.5-3 28.5 20.5 29.5-50.5 53.5 71 16.5-5.5-17.5-551h169l-42-35.5 57-22.5-28.5-35 10-14.5-230-17-9.5 56-54-8z" horiz-adv-x="783" />
<glyph unicode="&#xfb03;" d="M840.5 139v637l22.5 8 34-80 43 77 30.5-16.5 29 10.5-17.5-647.5-12.5-4-43 61.5-29.5-54-26.5 10zM426 703l20.5 29-9 30.5 326.5 15.5-18.5-63.5 24-14.5-10.5-25.5-169-11.5-3-150.5 151.5 3.5-13.5-53.5 31-12.5-6-28.5-164-19.5 6-261-20.5-8-35.5 73.5-32-67.5-12 16.5-28-8.5-6 497-21.5 6 45 27.5zM30.5 703l20.5 29-9 30.5 326.5 15.5-18.5-63.5 24-14.5-10.5-25.5-169-11.5-3-150.5 151.5 3.5-13.5-53.5 31-12.5-6-28.5-164-19.5 6-261-20.5-8-35.5 73.5-32-67.5-12 16.5-28-8.5-6 497-21.5 6 45 27.5z" horiz-adv-x="1044" />
<glyph unicode="&#xfb04;" d="M854 754.5l19.5-3 28.5 20.5 30-50.5 53 71 16.5-5.5-17.5-551h169l-42-35.5 57.5-22.5-29-35 10.5-14.5-230.5-17-9 56-54.5-8zM426 703l20.5 29-9 30.5 326.5 15.5-18.5-63.5 24-14.5-10.5-25.5-169-11.5-3-150.5 151.5 3.5-13.5-53.5 31-12.5-6-28.5-164-19.5 6-261-20.5-8-35.5 73.5-32-67.5-12 16.5-28-8.5-6 497-21.5 6 45 27.5zM30.5 703l20.5 29-9 30.5 326.5 15.5-18.5-63.5 24-14.5-10.5-25.5-169-11.5-3-150.5 151.5 3.5-13.5-53.5 31-12.5-6-28.5-164-19.5 6-261-20.5-8-35.5 73.5-32-67.5-12 16.5-28-8.5-6 497-21.5 6 45 27.5z" horiz-adv-x="1198" />
</font>
</defs>
</svg>
